<svg width="16" height="15" viewBox="0 0 16 15" fill="none" xmlns="http://www.w3.org/2000/svg">
<path fill-rule="evenodd" clip-rule="evenodd" d="M8.73334 1.70833C11.3833 2.04166 13.4583 4.11666 13.7917 6.76666C13.8417 7.19166 14.2 7.5 14.6167 7.5C14.65 7.5 14.6833 7.5 14.7167 7.49166C15.175 7.43333 15.5 7.01666 15.4417 6.55833C15.0167 3.15 12.3417 0.474998 8.93334 0.049998C8.475 -1.96374e-06 8.05834 0.324998 8.00834 0.783331C7.95 1.24166 8.275 1.65833 8.73334 1.70833V1.70833ZM9.05 3.46666C8.60834 3.35 8.15 3.61666 8.03334 4.06666C7.91667 4.51666 8.18334 4.96666 8.63334 5.08333C9.50834 5.30833 10.1917 5.99166 10.425 6.875C10.525 7.25 10.8583 7.5 11.2333 7.5C11.3 7.5 11.375 7.49166 11.4417 7.475C11.8833 7.35833 12.15 6.9 12.0417 6.45833C11.65 4.98333 10.5083 3.84166 9.05 3.46666ZM14.025 10.2167L11.9083 9.975C11.4 9.91666 10.9 10.0917 10.5417 10.45L9.00834 11.9833C6.65 10.7833 4.71667 8.85833 3.51667 6.49166L5.05834 4.95C5.41667 4.59166 5.59167 4.09166 5.53334 3.58333L5.29167 1.48333C5.19167 0.641665 4.48334 0.0083313 3.63334 0.0083313H2.19167C1.25 0.0083313 0.46667 0.791665 0.525003 1.73333C0.96667 8.85 6.65834 14.5333 13.7667 14.975C14.7083 15.0333 15.4917 14.25 15.4917 13.3083V11.8667C15.5 11.025 14.8667 10.3167 14.025 10.2167Z" fill="#ffffff"/>
</svg>
