<svg width="90" height="100" viewBox="0 0 90 100" fill="none" xmlns="http://www.w3.org/2000/svg">
<path d="M46.9006 66.2294C46.7811 68.6224 47.0762 69.2443 49.5559 71.8271C52.3361 74.7232 54.1045 78.4988 53.8756 80.7125C53.8346 81.1083 53.7298 81.4542 53.5555 81.7362C53.1037 82.4673 52.8518 81.9195 52.8501 80.2041C52.8482 77.6202 51.3417 73.6473 50.4707 73.9287C50.0448 74.0664 48.9751 73.0899 49.1832 72.7532C49.3121 72.5446 49.2789 72.4862 49.0954 72.5996C48.9326 72.7003 48.4627 72.4704 48.0513 72.0892C47.6395 71.7077 47.2311 71.4909 47.143 71.6076C47.0549 71.7241 46.8616 71.9308 46.7132 72.0671C46.5472 72.2201 46.6293 72.2484 46.9273 72.1415C47.3379 71.994 47.3674 72.0491 47.1223 72.5072C46.9636 72.8036 46.9238 73.0463 47.0342 73.0463C47.1443 73.0463 47.0996 73.1813 46.9349 73.346C46.5758 73.7051 45.4919 73.4166 45.4835 72.9599C45.4767 72.5972 44.4143 71.1515 44.4048 71.492C44.4015 71.6117 44.6082 72.1025 44.8639 72.5827C45.1197 73.0626 45.3051 73.5428 45.2762 73.65C45.2471 73.7572 45.4055 73.7749 45.628 73.6895C45.9497 73.566 45.9994 73.701 45.8699 74.3478C45.7755 74.8201 45.833 75.2394 46.0073 75.3471C46.1725 75.4491 46.3075 75.7859 46.3075 76.0951C46.3075 76.3233 46.2915 76.4493 46.2357 76.486C46.1769 76.5247 46.0737 76.4638 45.8985 76.3184C45.6735 76.1316 45.4895 75.82 45.4895 75.6255C45.4895 75.4311 45.06 74.3759 44.5351 73.2808C44.0102 72.1854 43.5807 71.0631 43.5807 70.7863C43.5807 70.5098 43.4627 70.0632 43.3184 69.7935C43.1294 69.4404 43.2058 69.0101 43.5911 68.254C43.8853 67.6767 44.0565 66.9852 43.9715 66.7169C43.8717 66.4028 43.9562 66.2294 44.209 66.2294C44.4247 66.2294 44.8931 65.7974 45.2498 65.2693C46.3462 63.6463 47.0105 64.0327 46.9006 66.2294Z" fill="#F58E06"/>
<path d="M41.6807 76.1139C41.6913 78.2053 42.0933 78.8077 43.647 79.0607L44.8078 79.2497L43.3678 79.2838C42.0581 79.3149 41.8506 79.2339 41.0748 78.3883C40.2162 77.4528 39.0497 77.4716 39.4118 78.4153C39.5056 78.6599 39.4077 78.7234 39.1118 78.61C38.9195 78.5362 38.7896 78.4926 38.7445 78.3883C38.6566 78.1851 38.8908 77.7516 39.6123 76.4159C39.6358 76.3726 39.6597 76.3283 39.6842 76.283C41.0424 73.7686 41.6684 73.7154 41.6807 76.1139Z" fill="#F58E06"/>
<path d="M37.0365 79.1903C37.0365 81.2247 37.5756 82.4395 38.6431 82.8117C39.0334 82.9477 39.2964 83.1209 39.4118 83.2769C39.5737 83.4958 39.4446 83.6807 38.9681 83.6807C38.14 83.6807 36.2184 81.7275 36.2184 80.886C36.2184 80.0495 35.7186 79.6252 35.3742 80.1692C35.2541 80.3584 35.1528 80.4073 35.1347 80.2921C35.133 80.2815 35.132 80.2696 35.1318 80.2561C35.1296 80.0975 35.308 79.7293 35.528 79.4381C35.7483 79.1472 35.9324 78.6329 35.937 78.2953C35.943 77.8664 36.1099 77.6818 36.4911 77.6818C36.9708 77.6818 37.0365 77.8637 37.0365 79.1903Z" fill="#F58E06"/>
<path d="M42.3537 88.4517L43.7171 89.1711L46.2188 89.3018H48.2162L49.6846 89.1711L50.2613 88.8575L50.943 88.3898C52.7102 87.177 54.3389 85.0441 53.4975 85.0441C53.2226 85.0441 51.3613 86.2259 51.2612 86.4639C51.0453 86.9774 50.3977 86.6346 50.3977 86.0069C50.3977 85.4918 50.2916 85.3746 49.9447 85.5076C49.5725 85.6505 49.5262 85.5641 49.6846 85.022C50.4601 82.3672 50.4402 80.7628 49.6083 78.9282C48.8412 77.2363 48.2162 76.6214 48.2162 77.5583C48.2162 77.7903 47.7058 78.9102 47.0819 80.047C46.1033 81.83 45.9495 82.3342 45.9626 83.7167L45.9778 85.3198L44.6027 84.5713C43.8463 84.1598 42.9697 83.4244 42.6542 82.9371C41.9327 81.8221 41.3159 81.7411 41.5692 82.7945C41.8514 83.9692 42.6435 85.3915 43.4179 86.1141C43.8073 86.4778 44.1261 86.8923 44.1261 87.0352C44.1261 87.3995 41.9498 87.018 41.1899 86.5206C40.6369 86.1588 40.5535 86.1623 40.4027 86.5555C40.1897 87.1107 40.638 87.5465 42.3537 88.4517Z" fill="white"/>
<path fill-rule="evenodd" clip-rule="evenodd" d="M65.7358 0.794992C65.3758 0.790357 65.1222 0.617752 65.1222 0.377796C65.1222 -0.125294 65.2182 -0.125294 68.258 0.373978C71.4974 0.906244 76.0522 0.892611 79.3658 0.340439C81.0558 0.0589017 81.7913 -0.101629 82.1343 0.19373C82.4321 0.450188 82.434 1.05036 82.5076 2.21346C82.6537 4.51813 82.4402 4.92251 78.584 9.64392C77.4039 11.0888 76.1943 12.5777 75.896 12.9526C75.5311 13.4115 75.3452 14.0782 75.3272 14.9917C75.2909 16.8532 75.2579 16.8682 70.9679 16.9855C66.7629 17.1003 65.9403 17.259 65.9403 17.9551C65.9403 18.2142 65.7104 18.6344 65.4295 18.8885C65.0293 19.2506 64.9439 19.628 65.0336 20.635C65.2796 23.386 65.3796 23.6917 66.0343 23.6917C67.6371 23.6917 67.8782 26.6552 66.3236 27.2463C65.1045 27.7096 65.6965 29.9884 67.4858 31.7218C69.1603 33.3437 69.1884 33.3445 69.0114 31.773C68.4955 27.1961 74.7131 25.1568 76.6071 29.2816C78.4368 33.2657 74.9062 36.9651 71.135 35.0149C69.6091 34.226 69.5933 35.0367 71.0262 40.5505C71.158 41.0582 72.1025 40.223 75.1276 36.9236C78.8945 32.815 79.5065 32.1993 79.5174 31.5731C79.5203 31.4052 79.48 31.2366 79.4457 30.9997C79.2892 29.9197 86.6111 21.7701 87.7185 21.7917C89.5181 21.8266 90.8272 24.7211 89.3815 25.4687C88.8345 25.7515 88.3134 26.4051 87.8439 27.3971C87.4529 28.2225 86.7644 29.2298 86.3133 29.6353C85.0239 30.7941 83.3987 32.5335 83.3949 32.7582C83.3932 32.8706 83.2076 32.9627 82.9826 32.9627C82.7555 32.9627 82.5736 33.2051 82.5736 33.5081C82.5736 33.8956 82.3917 34.0534 81.9459 34.0534C81.1524 34.0534 76.9362 38.5177 73.3707 43.133C70.4449 46.9203 70.1349 47.8798 72.076 47.1417C74.8023 46.1052 77.4347 47.4626 77.8317 50.11C77.9544 50.9286 78.2443 51.5217 78.7226 51.9329C79.4135 52.5273 79.4323 52.6315 79.4664 56.0457C79.4858 57.9724 79.5921 60.6836 79.7031 62.071L79.9046 64.593L79.0577 65.3843C78.3809 66.0164 78.2107 66.3965 78.2107 67.2753C78.2107 70.3547 76.4386 71.0598 70.7121 70.2595C70.0067 70.1608 70.0582 72.3984 70.8992 78.3744C71.8072 84.8281 71.2253 86.1348 67.443 86.1348C66.2969 86.1348 65.1029 85.9976 64.7898 85.8302C63.5601 85.172 64.7146 91.7282 66.2116 93.9039C67.9114 96.3746 70.8474 97.085 72.5055 95.4268C73.4741 94.458 73.5253 93.514 72.6639 92.5122C71.4402 91.0896 70.8842 91.906 71.4363 94.3151C71.6411 95.2084 70.127 94.9505 69.3746 93.9642C67.9074 92.0407 68.7472 89.841 71.2018 89.1781C75.7485 87.9503 78.3588 94.9115 74.6242 98.3052C73.143 99.6511 69.4712 100.32 67.9134 99.5279C67.6529 99.3954 67.0719 99.1191 66.622 98.9144C63.5402 97.5103 61.3713 93.2849 60.8843 87.7365L60.7016 85.6568L58.9581 85.7969C57.9091 85.8811 57.4239 85.9258 57.3187 85.747C57.2262 85.5898 57.4274 85.2599 57.7976 84.6323C59.3862 81.9402 58.6415 78.5511 55.7318 75.2277C53.4636 72.6373 53.1525 72.9258 53.9675 76.8638L54.3128 78.5311L54.2151 78.8037L54.0242 79.0452V79.4854L54.1264 79.7581L54.0242 80.2041L53.8756 80.7125C54.1045 78.4988 52.3361 74.7232 49.5559 71.8271C47.0762 69.2443 46.7811 68.6224 46.9006 66.2294C47.0105 64.0327 46.3462 63.6463 45.2498 65.2693C44.8931 65.7974 44.4247 66.2294 44.209 66.2294C43.9562 66.2294 43.8717 66.4028 43.9715 66.7169C44.0565 66.9852 43.8853 67.6767 43.5911 68.254C43.2058 69.0101 43.1294 69.4404 43.3184 69.7935C43.4627 70.0632 43.5807 70.5098 43.5807 70.7863C43.5807 71.0631 44.0102 72.1854 44.5351 73.2808C45.06 74.3759 45.4895 75.4311 45.4895 75.6255C45.4895 75.82 45.6735 76.1316 45.8985 76.3184C46.0737 76.4638 46.1769 76.5247 46.2357 76.486V77.4631L46.0825 77.8494L45.628 78.122L45.4835 78.3883L45.4008 78.6674L45.1281 79.0452L44.8639 79.1815L44.8078 79.2497L43.647 79.0607C42.0933 78.8077 41.6913 78.2053 41.6807 76.1139C41.6684 73.7154 41.0424 73.7686 39.6842 76.283L39.6123 76.4159C38.8908 77.7516 38.6566 78.1851 38.7445 78.3883L38.4312 79.1394C38.4241 79.1526 38.4171 79.1696 38.41 79.1903C38.3964 79.2297 38.3826 79.2827 38.3685 79.349C38.1427 80.4116 38.4822 82.3912 38.915 82.5349C38.9818 82.5571 39.0347 82.5683 39.0736 82.5685L39.2655 82.7945L39.4019 83.0302L39.4118 83.2769C39.2964 83.1209 39.0334 82.9477 38.6431 82.8117C37.5756 82.4395 37.0365 81.2247 37.0365 79.1903C37.0365 77.8637 36.9708 77.6818 36.4911 77.6818C36.1099 77.6818 35.943 77.8664 35.937 78.2953C35.9324 78.6329 35.7483 79.1472 35.528 79.4381C35.308 79.7293 35.1296 80.0975 35.1318 80.2561C35.132 80.2696 35.133 80.2815 35.1347 80.2921L35.039 80.5761V80.9187C35.0009 80.852 34.9349 81.1156 34.8092 81.6356C34.5472 82.7195 34.6257 84.1993 34.9936 85.1123C35.1678 85.5444 34.9674 85.5894 32.8743 85.5894H30.5626L30.3703 87.7929C29.6554 95.9893 25.0512 100.974 19.3288 99.7466C17.4051 99.3343 17.5041 99.2173 21.4939 97.1886C23.4435 96.1971 25.0387 95.3407 25.0387 95.285C25.0387 95.0955 23.9398 95.471 23.7912 95.7115C23.7099 95.8432 23.497 95.9498 23.3184 95.9482C23.1397 95.9465 23.3963 95.6278 23.8888 95.2398C25.4861 93.9808 26.9474 90.0134 26.9474 86.9351V85.8621H25.5704C22.4796 85.8621 21.9342 84.7766 22.6945 80.1359C23.0476 77.979 23.176 75.3572 23.2147 69.5058L23.2663 61.7389L22.478 61.5982C21.5686 61.436 20.8231 59.609 21.1094 58.2443C21.2804 57.4292 22.3776 56.5256 22.8453 56.8146C23.0018 56.9114 23.1427 56.8299 23.158 56.6336C23.2406 55.5909 23.0937 51.2926 22.8095 46.4363C22.1202 34.6449 24.6157 30.7448 34.4529 28.24C37.6969 27.414 37.7967 27.3663 38.1135 26.4899C38.519 25.3689 41.1362 22.5061 42.1473 22.0775C43.0106 21.7118 43.8534 20.1155 43.8534 18.8465C43.8534 18.3797 43.9791 17.9199 44.1329 17.8251C44.6889 17.4812 44.1168 14.8815 43.341 14.226C42.6613 13.6517 42.3823 13.6217 37.65 13.6125L32.6736 13.6026V14.7018C32.6736 15.4274 32.5346 15.8544 32.2646 15.958C31.6811 16.1822 31.7591 17.2164 32.401 17.7659C33.2004 18.4503 33.2144 22.4382 32.419 22.8641C31.6358 23.2832 28.8346 23.2028 27.9389 22.7357C25.4703 21.4484 20.9485 22.646 20.9485 24.5872C20.9485 25.4467 20.8089 25.8289 20.4032 26.0825C19.7553 26.4872 19.7024 27.0407 20.2668 27.5092C20.8983 28.0333 20.8444 32.1867 20.1987 32.7468C19.2699 33.552 16.0902 33.5214 15.8178 32.7045C15.7652 32.5466 15.0153 32.4174 14.1512 32.4174C11.8545 32.4174 11.5428 32.8477 11.8392 35.611C11.9643 36.7791 12.0448 37.9342 12.0178 38.178C11.9908 38.4217 12.2098 38.8395 12.5048 39.1064C13.3673 39.8868 13.1947 40.8057 12.0865 41.3342C10.5442 42.0696 10.7673 42.2242 13.9846 42.6507C18.7216 43.2781 21.2738 46.1818 19.5459 48.9782C19.2241 49.4984 19.0709 50.0037 19.2053 50.101C20.4942 51.0336 20.3074 53.2758 18.8402 54.4851C18.2918 54.9372 17.8975 55.3414 17.9643 55.3828C18.0309 55.4245 18.3147 55.5846 18.595 55.7384C20.2646 56.6554 20.4686 58.8436 19.0191 60.2932L18.2084 61.1038L19.1693 62.1676C20.4572 63.5931 20.4059 64.4283 18.9247 66.1604C18.4033 66.7703 18.4047 66.7785 19.2656 67.9775C21.0633 70.4807 20.1329 71.9995 15.5929 73.9726C13.89 74.7126 12.5397 75.5067 11.9093 76.1387C10.7643 77.2867 9.22666 77.4915 7.85183 76.6792C6.93154 76.1357 6.15005 76.5537 6.28202 77.519C6.35783 78.0723 4.22331 78.6056 3.24222 78.2784C1.80412 77.799 3.73658 74.1201 5.84001 73.3331C8.02089 72.517 8.77102 71.6409 7.55979 71.3241C6.26457 70.9854 7.45944 70.5922 9.78483 70.5922C11.7702 70.5922 12.2228 70.6683 12.2228 71.0012C12.2228 71.2262 12.0298 71.4102 11.7939 71.4102C11.239 71.4102 11.3893 72.2105 12.0189 72.607C13.0354 73.2473 17.4037 71.2706 17.4037 70.1704C17.4037 68.6802 15.5885 68.1163 13.4311 68.9365C10.2478 70.1464 5.0907 70.6598 2.54962 70.0201C-0.601714 69.2266 -0.770501 65.9283 2.28348 64.824C3.38428 64.4259 3.51271 64.0479 2.54716 64.0479C-0.535454 64.0479 -0.587807 59.732 2.48363 58.8117L3.54762 58.493L2.4231 58.1608C-0.668792 57.2479 -0.819856 54.0628 2.18559 53.1578C4.19604 52.5524 4.22658 52.5298 3.3172 52.3242C1.1816 51.8407 -0.291407 50.332 0.0488939 48.976C0.55471 46.9609 4.21404 45.9585 8.81438 46.5751C11.401 46.9219 11.7459 47.0007 14.8528 47.9562C16.9565 48.6032 17.9491 48.4418 17.9491 47.4525C17.9491 46.1568 15.5738 45.1408 11.726 44.7906C9.45408 44.584 8.84219 44.0621 8.99898 42.4647C9.08106 41.63 9.02216 41.5592 8.12341 41.4089C6.37501 41.1169 5.9739 40.3373 7.06461 39.3502C7.49407 38.9614 7.60342 38.6028 7.51371 37.8764C7.44826 37.3485 7.51643 36.6098 7.66504 36.2349C7.81365 35.8599 7.91809 35.2592 7.89736 34.8998C7.87664 34.5404 7.96335 34.111 8.09015 33.9455C8.68131 33.1738 8.63604 32.7738 7.97153 32.9008C7.24703 33.0394 7.21894 32.9025 7.31111 29.6906C7.36401 27.8528 7.46408 27.7442 9.34446 27.4893C11.1518 27.2439 11.9502 27.4118 11.9502 28.0376C11.9502 28.694 14.9602 28.7842 15.9187 28.1562C16.6544 27.6742 16.8589 26.2336 16.226 25.9906C15.4554 25.6951 15.613 18.4787 16.406 17.7334C17.6925 16.5249 21.0273 16.8039 21.6267 18.17C22.0098 19.0431 27.2201 19.1339 27.2201 18.2673C27.2201 17.9835 27.4041 17.6805 27.6291 17.5941C28.178 17.3836 28.1461 16.628 27.5609 15.982C26.648 14.9748 26.708 10.0131 27.6422 9.27825C28.999 8.211 32.401 8.68191 32.401 9.93704C32.401 10.5582 42.1085 10.5135 42.7984 9.88905C43.4837 9.26898 46.1335 9.22399 46.7332 9.82225C47.3107 10.3984 47.9837 13.5637 47.6581 14.172C47.4386 14.5824 47.6104 16.0756 48.1734 18.6472C48.4949 20.1147 49.3394 21.1596 50.7314 21.8116C52.392 22.5893 53.6744 23.9821 54.6582 26.076L55.4144 27.6856L58.2914 28.1451C59.8737 28.3978 61.4444 28.6792 61.7819 28.7703C62.3218 28.9162 62.3955 28.8347 62.3955 28.0916C62.3955 27.4187 62.2572 27.2122 61.716 27.0764C60.3449 26.7323 60.1639 23.9644 61.5125 23.9644C61.8515 23.9644 61.8951 23.7062 61.7541 22.5328C61.6595 21.7453 61.581 20.5919 61.5799 19.9691C61.5777 18.9458 61.4951 18.8081 60.7204 18.5381L59.8636 18.2395L60.0414 16.5383C60.2909 14.1502 60.9642 13.5009 63.126 13.5626C64.3735 13.5983 64.816 13.7313 65.1931 14.1843C65.6174 14.6936 65.8544 14.7397 67.2382 14.5807C68.0991 14.482 69.5625 14.3304 70.4902 14.244C72.8753 14.0217 72.9074 13.6335 70.723 11.4321C68.8271 9.52176 68.5651 8.87851 69.5532 8.56111C70.0571 8.39914 70.0841 8.34161 69.7038 8.23936C69.4493 8.17064 69.0092 8.23854 68.7259 8.39015C68.201 8.671 66.2012 6.92396 65.0254 5.15701C64.3568 4.15247 64.4618 0.78763 65.1487 1.21219C65.2817 1.29426 65.6062 1.23618 65.8699 1.08267C66.2994 0.832349 66.2855 0.802627 65.7358 0.794992ZM72.0218 2.69555C73.6055 2.69555 73.1929 2.51313 70.8485 2.17638C69.7237 2.01468 68.4966 1.80335 68.1217 1.70655C67.626 1.57867 67.5169 1.61411 67.7222 1.83635C68.0641 2.20692 70.5101 2.69555 72.0218 2.69555ZM80.324 2.14611C80.6616 2.14829 80.9375 2.02749 80.9375 1.87752C80.9375 1.53586 80.6482 1.53586 80.1195 1.87752C79.7887 2.0913 79.828 2.14256 80.324 2.14611ZM74.1045 2.96823C74.5631 2.96823 74.9386 2.84553 74.9386 2.69555C74.9386 2.54558 74.6392 2.42288 74.273 2.42288C73.9068 2.42288 73.5316 2.54558 73.4389 2.69555C73.3405 2.85452 73.6178 2.96823 74.1045 2.96823ZM77.05 2.88206C77.8361 2.85452 78.4804 2.74 78.4815 2.62738C78.484 2.3528 76.8484 2.40188 76.1657 2.69664C75.7812 2.8627 76.0424 2.91751 77.05 2.88206ZM74.5296 3.51358C74.6046 3.51358 74.6659 3.45223 74.6659 3.37725C74.6659 3.30226 74.6046 3.24091 74.5296 3.24091C74.4546 3.24091 74.3933 3.30226 74.3933 3.37725C74.3933 3.45223 74.4546 3.51358 74.5296 3.51358ZM80.9806 3.78626C80.9806 4.16119 81.0425 4.31471 81.118 4.12711C81.1938 3.93978 81.1938 3.63302 81.118 3.44542C81.0425 3.25809 80.9806 3.41133 80.9806 3.78626ZM77.9381 3.51358C77.7382 3.51358 77.6564 3.59539 77.7562 3.69546C77.8563 3.79526 78.0199 3.79526 78.1199 3.69546C78.2197 3.59539 78.1379 3.51358 77.9381 3.51358ZM78.1786 8.69445C78.6413 8.16955 79.022 7.52521 79.0244 7.2629C79.031 6.55094 78.8976 6.65292 77.778 8.21727C77.2144 9.00476 76.446 9.98503 76.0702 10.396C75.6947 10.8066 75.481 11.2361 75.5955 11.3503C75.71 11.4643 76.1488 11.1281 76.5703 10.6032C76.9921 10.0783 77.7158 9.21936 78.1786 8.69445ZM30.4922 9.51249C30.2923 9.51249 30.2105 9.59429 30.3103 9.69436C30.4104 9.79416 30.574 9.79416 30.6741 9.69436C30.7739 9.59429 30.6921 9.51249 30.4922 9.51249ZM31.1292 11.6939C31.1292 12.8187 31.1775 13.279 31.2361 12.7164C31.295 12.1542 31.295 11.2339 31.2361 10.6714C31.1775 10.1091 31.1292 10.5691 31.1292 11.6939ZM46.1166 12.0347C46.2183 13.075 46.2268 13.054 46.2006 11.8302L46.1712 10.4669L44.9441 10.3919C44.0476 10.3371 43.8272 10.3911 44.1261 10.5923C44.351 10.7436 44.8656 10.8693 45.2694 10.8718C45.9326 10.8756 46.0144 10.9877 46.1166 12.0347ZM33.0827 11.1485C33.1576 11.1485 33.219 11.0872 33.219 11.0122C33.219 10.9372 33.1576 10.8759 33.0827 10.8759C33.0077 10.8759 32.9463 10.9372 32.9463 11.0122C32.9463 11.0872 33.0077 11.1485 33.0827 11.1485ZM35.8416 11.4212C36.9539 11.4212 37.5513 11.3195 37.4455 11.1485C37.3528 10.9986 36.4794 10.8759 35.5046 10.8759C34.3923 10.8759 33.7949 10.9776 33.9007 11.1485C33.9934 11.2985 34.8668 11.4212 35.8416 11.4212ZM64.5769 17.6928C64.8736 17.6928 64.9515 15.822 64.684 15.1247C64.5641 14.8117 64.148 14.6934 63.1682 14.6934C62.3374 14.6934 61.8828 14.7983 61.9864 14.966C62.0792 15.116 62.6384 15.2387 63.2296 15.2387H64.3042V16.4658C64.3042 17.1406 64.4269 17.6928 64.5769 17.6928ZM66.8946 15.5114C66.9696 15.5114 67.031 15.45 67.031 15.375C67.031 15.3001 66.9696 15.2387 66.8946 15.2387C66.8196 15.2387 66.7583 15.3001 66.7583 15.375C66.7583 15.45 66.8196 15.5114 66.8946 15.5114ZM73.7465 16.3199C74.0655 16.3251 74.4791 16.1454 74.6659 15.9204C75.0897 15.4099 74.7409 15.4099 73.8479 15.9204C73.2057 16.2874 73.1997 16.3106 73.7465 16.3199ZM29.1288 17.9655C28.929 17.9655 28.8472 18.0473 28.947 18.1474C29.047 18.2472 29.2106 18.2472 29.3107 18.1474C29.4105 18.0473 29.3287 17.9655 29.1288 17.9655ZM32.3922 18.9062C32.3971 18.7486 32.2537 18.4727 32.0737 18.2927C31.8938 18.1127 31.2497 17.9862 30.6422 18.0113L29.5378 18.0571L30.6127 18.1673C31.2042 18.2278 31.8444 18.4833 32.0356 18.735C32.227 18.9867 32.3876 19.0638 32.3922 18.9062ZM18.4944 18.7835C19.1737 18.7835 19.5508 18.6758 19.4488 18.5108C19.3561 18.3609 18.9266 18.2382 18.4944 18.2382C18.0622 18.2382 17.6328 18.3609 17.54 18.5108C17.4381 18.6758 17.8152 18.7835 18.4944 18.7835ZM20.9417 21.9237C21.2376 21.7407 21.0159 19.4718 20.6284 18.7153C20.494 18.4528 20.2655 18.2382 20.1209 18.2382C19.7073 18.2382 19.8136 18.7083 20.2668 18.8822C20.5629 18.9957 20.6758 19.46 20.6758 20.5635C20.6758 21.4841 20.7811 22.0226 20.9417 21.9237ZM47.8072 20.7013C48.3117 21.0713 48.3245 21.0655 47.9785 20.6241C47.7726 20.3615 47.4759 20.1469 47.3194 20.1469C47.1629 20.1469 47.0857 20.1815 47.1482 20.2241C47.2109 20.2666 47.5073 20.4812 47.8072 20.7013ZM30.0832 22.0556C30.1582 22.0556 30.2195 21.9943 30.2195 21.9193C30.2195 21.8443 30.1582 21.783 30.0832 21.783C30.0082 21.783 29.9469 21.8443 29.9469 21.9193C29.9469 21.9943 30.0082 22.0556 30.0832 22.0556ZM31.1739 22.0556C31.2489 22.0556 31.3103 21.9943 31.3103 21.9193C31.3103 21.8443 31.2489 21.783 31.1739 21.783C31.0989 21.783 31.0376 21.8443 31.0376 21.9193C31.0376 21.9943 31.0989 22.0556 31.1739 22.0556ZM52.7413 26.2879C52.4686 25.2012 50.678 23.4005 49.1706 22.6972C47.7999 22.0575 45.9386 21.8659 45.2618 22.2948C44.8337 22.5661 45.6997 22.8639 46.9347 22.8699C48.1372 22.8759 49.1153 23.5303 50.892 25.5181C52.5502 27.3731 53.0677 27.5885 52.7413 26.2879ZM87.7544 22.8737C87.5546 22.8737 87.4728 22.9555 87.5726 23.0555C87.6726 23.1553 87.8362 23.1553 87.9363 23.0555C88.0361 22.9555 87.9543 22.8737 87.7544 22.8737ZM66.2309 25.8731C66.391 25.8731 66.4829 25.5358 66.4354 25.1233C66.3433 24.321 62.712 23.7768 62.2662 24.4983C62.1509 24.6851 62.7499 24.7824 64.0154 24.7824C65.7584 24.7824 65.9403 24.8339 65.9403 25.3278C65.9403 25.6277 66.0712 25.8731 66.2309 25.8731ZM18.6989 25.3087C19.4864 25.319 20.1305 25.2051 20.1305 25.0551C20.1305 24.7271 18.5762 24.7271 17.8127 25.0551C17.4122 25.2271 17.6475 25.2945 18.6989 25.3087ZM82.933 27.9597C82.993 28.0194 83.4969 27.513 84.0531 26.8343C84.6091 26.1556 85.0149 25.6004 84.9543 25.6004C84.7504 25.6004 82.8233 27.8498 82.933 27.9597ZM87.1049 28.0545C87.1799 28.0545 87.1655 27.9318 87.0728 27.7819C86.98 27.6319 86.8429 27.5092 86.7679 27.5092C86.6929 27.5092 86.7074 27.6319 86.8001 27.7819C86.8928 27.9318 87.0299 28.0545 87.1049 28.0545ZM11.1321 31.5993C11.5038 32.1744 11.4945 29.277 11.1226 28.5819C10.9143 28.1931 10.5742 28.0644 9.82737 28.0916C9.07369 28.1192 8.98889 28.1609 9.49607 28.2541C10.5576 28.4494 10.8592 28.8483 10.8635 30.0647C10.866 30.684 10.9868 31.3744 11.1321 31.5993ZM19.2083 28.5999C19.4332 28.5999 19.5415 28.4772 19.4488 28.3272C19.3561 28.1772 19.0962 28.0545 18.8713 28.0545C18.6463 28.0545 18.538 28.1772 18.6308 28.3272C18.7235 28.4772 18.9833 28.5999 19.2083 28.5999ZM71.742 33.5154C74.7306 35.3377 77.2839 31.4592 74.664 29.0771C73.66 28.1642 72.8581 28.1303 71.6387 28.9495C70.104 29.9802 70.1624 32.5523 71.742 33.5154ZM72.749 30.525C73.0533 29.9281 73.3026 29.2508 73.3026 29.0198C73.3026 28.7889 73.4253 28.5999 73.5752 28.5999C73.8468 28.5999 73.9712 29.0356 73.8476 29.5543C73.8119 29.7042 73.7936 30.2311 73.8073 30.7246C73.8332 31.6629 73.3759 32.0632 72.6127 31.7703C72.2497 31.631 72.2675 31.4685 72.749 30.525ZM81.4147 29.3909C81.7523 29.1837 82.0282 28.9208 82.0282 28.8069C82.0282 28.4783 81.8763 28.559 81.3206 29.184C80.8031 29.7659 80.8034 29.7664 81.4147 29.3909ZM14.1477 29.6906C14.3064 29.6906 14.3606 29.5679 14.2679 29.4179C14.1752 29.268 14.0454 29.1452 13.9792 29.1452C13.9129 29.1452 13.8589 29.268 13.8589 29.4179C13.8589 29.5679 13.989 29.6906 14.1477 29.6906ZM68.9405 49.5851C70.1357 34.4663 67.1788 30.8239 53.0246 29.9807C42.6269 29.3612 36.1863 29.9469 31.5066 31.9372C29.5976 32.7492 30.018 32.7629 33.6479 32.0075C37.7863 31.1467 42.5563 31.1063 49.4433 31.8745C63.1644 33.4045 64.4681 34.5955 65.9261 46.9312C66.2323 49.5216 66.6672 52.6841 66.8927 53.9589C67.1182 55.2336 67.3028 56.3993 67.3028 56.5493C67.3028 56.7276 61.8621 56.8272 51.5563 56.8373C36.339 56.852 30.3433 57.0423 30.6269 57.5012C30.7943 57.772 48.5789 57.949 61.4948 57.808L71.0925 57.7033L71.273 58.4234C71.5348 59.4656 71.2043 60.856 70.5649 61.4035C69.7845 62.0718 69.8562 67.2358 70.644 67.1036C70.927 67.0561 71.1211 67.1949 71.1211 67.4444C71.1211 67.6759 71.2569 67.8654 71.423 67.8654C71.589 67.8654 71.6493 67.6683 71.5569 67.4275C71.4096 67.0438 71.6504 67.0016 73.5046 67.0867L75.6203 67.1837L75.5331 66.378C75.4851 65.9349 75.2309 65.4217 74.9683 65.2379C74.12 64.6437 73.807 62.8978 73.9829 59.7432C74.0726 58.1366 74.0478 55.9631 73.9278 54.9132C73.6453 52.4428 73.747 51.7775 74.4069 51.7775C74.8644 51.7775 75.4921 50.573 75.1758 50.3023C75.1205 50.2548 74.1356 50.1482 72.9876 50.0653C71.8968 49.9865 71.3013 49.9238 70.9754 50.1905C70.5635 50.5275 70.5823 51.3909 70.5758 53.4135C70.5654 56.6325 70.4498 56.9583 69.3168 56.9583C68.1094 56.9583 67.9646 55.6023 69.0788 54.7262C69.4551 54.4301 69.6852 54.062 69.59 53.9079C69.4793 53.7293 69.3359 53.7587 69.193 53.99C68.6758 54.8271 68.6128 53.7301 68.9405 49.5851ZM9.35973 33.5081C9.58469 33.5081 9.76875 33.3854 9.76875 33.2354C9.76875 33.0854 9.58469 32.9627 9.35973 32.9627C9.13477 32.9627 8.95072 33.0854 8.95072 33.2354C8.95072 33.3854 9.13477 33.5081 9.35973 33.5081ZM10.5868 32.9627C10.3869 32.9627 10.3051 33.0445 10.4049 33.1446C10.505 33.2444 10.6686 33.2444 10.7687 33.1446C10.8685 33.0445 10.7867 32.9627 10.5868 32.9627ZM28.8562 34.3261C28.8562 34.526 28.938 34.6078 29.038 34.508C29.1378 34.4079 29.1378 34.2443 29.038 34.1442C28.938 34.0444 28.8562 34.1262 28.8562 34.3261ZM28.2685 35.5791C28.4417 35.4722 28.5835 35.3307 28.5835 35.2644C28.5835 35.037 28.3427 35.1447 28.1486 35.4591C28.0278 35.6541 28.0736 35.6999 28.2685 35.5791ZM9.22339 35.4168C9.02352 35.4168 8.94172 35.4986 9.04152 35.5987C9.14159 35.6985 9.3052 35.6985 9.40527 35.5987C9.50507 35.4986 9.42327 35.4168 9.22339 35.4168ZM55.1013 39.2248C55.5905 39.231 55.8512 39.092 55.8512 38.8253C55.8512 38.6256 55.8571 38.5077 55.8056 38.4715C55.7312 38.4192 55.5372 38.5371 55.0332 38.8253L54.3515 39.2149L55.1013 39.2248ZM12.4955 40.0643C12.4955 39.9182 12.2583 39.672 11.9682 39.5165C11.678 39.3614 11.0337 39.2455 10.5366 39.2588L9.63241 39.2834L10.5868 39.5359C11.1117 39.675 11.7557 39.9103 12.0183 40.0592C12.3243 40.2326 12.4955 40.2342 12.4955 40.0643ZM43.1892 41.8812C43.0414 42.2697 43.0725 42.3011 43.3419 42.0339C43.5284 41.8487 43.6121 41.6287 43.5281 41.545C43.4441 41.461 43.2917 41.6123 43.1892 41.8812ZM17.6082 44.9954C18.0407 45.3344 18.0502 45.3248 17.7113 44.8924C17.5054 44.6298 17.2905 44.4152 17.2341 44.4152C17.0097 44.4152 17.1539 44.639 17.6082 44.9954ZM54.8668 51.6294C54.1055 48.6621 52.4583 46.7703 49.6614 45.6504C45.8344 44.1185 41.6035 46.604 40.4409 51.0674C40.1334 52.2479 39.9483 52.8358 40.1639 53.1279C40.398 53.445 41.1043 53.4135 42.6392 53.4135H45.2422L45.7068 52.581C45.9814 52.0889 46.4665 51.6869 46.8935 51.598C47.291 51.5154 48.0829 50.9695 48.6531 50.3854C50.3748 48.6226 50.8299 48.9632 49.716 51.1811C48.7823 53.04 48.8194 53.2431 50.0568 53.0552C50.6194 52.9699 51.9996 53.0051 53.1244 53.1332C54.4077 53.2795 54.9628 53.398 55.1283 53.1965C55.279 53.013 55.1066 52.5642 54.8668 51.6294ZM18.4846 46.0065C18.6643 46.3566 18.886 46.5685 18.9773 46.4772C19.069 46.3858 18.922 46.0992 18.6509 45.8402C18.1797 45.3903 18.1724 45.3976 18.4846 46.0065ZM45.9195 47.2082C45.8137 46.8745 45.8101 46.4671 45.9116 46.3026C46.2472 45.7597 46.6115 46.4646 46.3544 47.1594L46.112 47.8146L45.9195 47.2082ZM47.9117 47.6873C47.6363 47.6873 47.5817 46.5039 47.8451 46.2405C47.9411 46.1445 48.1088 46.121 48.2176 46.1884C48.4862 46.3545 48.2141 47.6873 47.9117 47.6873ZM44.5168 47.8397C44.302 47.5485 44.1261 47.1499 44.1261 46.9535C44.1261 46.4063 44.5929 46.5287 45.0625 47.1989C45.6269 48.005 45.0976 48.6267 44.5168 47.8397ZM49.5246 47.7846C48.8401 48.2157 48.5966 47.7762 49.169 47.1436C49.4414 46.8428 49.7768 46.5966 49.9145 46.5966C50.3169 46.5966 50.0317 47.4653 49.5246 47.7846ZM51.761 48.369C51.1415 48.9296 50.9387 48.3461 51.5429 47.7418C51.7229 47.5619 51.9683 47.4146 52.0883 47.4146C52.4746 47.4146 52.3211 47.8621 51.761 48.369ZM73.5433 48.778C73.6758 48.778 73.8485 48.5326 73.927 48.2327C74.0197 47.8782 73.9352 47.6873 73.6859 47.6873C73.4752 47.6873 73.3026 47.9327 73.3026 48.2327C73.3026 48.5326 73.4111 48.778 73.5433 48.778ZM43.7861 48.9364C43.5284 49.1938 42.2173 48.6106 42.2173 48.2384C42.2173 48.0854 42.378 47.96 42.5743 47.96C43.1016 47.96 44.0214 48.7011 43.7861 48.9364ZM75.2113 48.778C75.2113 48.9779 75.2931 49.0597 75.3932 48.9599C75.493 48.8598 75.493 48.6962 75.3932 48.5961C75.2931 48.4963 75.2113 48.5781 75.2113 48.778ZM11.6093 49.8019C12.2248 49.7586 11.9657 49.3904 11.2003 49.2208C8.92454 48.7169 2.95182 48.7985 2.95182 49.3337C2.95182 50.0929 7.0766 50.5722 9.65695 50.1128C10.5431 49.9549 11.422 49.815 11.6093 49.8019ZM72.2118 49.3689C72.2118 49.7545 72.6898 49.6195 72.8559 49.187C72.9421 48.9621 72.9143 48.778 72.794 48.778C72.5099 48.778 72.2118 49.0804 72.2118 49.3689ZM52.2508 49.8687C52.079 49.8687 52.1008 49.7073 52.3064 49.4597C52.677 49.0133 53.3971 48.904 53.3971 49.2942C53.3971 49.5453 52.7517 49.8687 52.2508 49.8687ZM42.0649 50.6868C41.4874 50.6868 41.1626 50.5763 41.263 50.4141C41.3557 50.2641 41.7922 50.1414 42.2334 50.1414C42.6746 50.1414 43.0354 50.2641 43.0354 50.4141C43.0354 50.564 42.5985 50.6868 42.0649 50.6868ZM3.97436 50.8673C4.16196 50.9431 4.46872 50.9431 4.65605 50.8673C4.84365 50.7917 4.69013 50.7298 4.3152 50.7298C3.94027 50.7298 3.78703 50.7917 3.97436 50.8673ZM7.58733 50.6868C7.38746 50.6868 7.30565 50.7686 7.40545 50.8686C7.50553 50.9684 7.66913 50.9684 7.76921 50.8686C7.869 50.7686 7.7872 50.6868 7.58733 50.6868ZM53.3971 51.2321C53.0972 51.2321 52.8518 51.1094 52.8518 50.9594C52.8518 50.8095 53.0972 50.6868 53.3971 50.6868C53.6971 50.6868 53.9425 50.8095 53.9425 50.9594C53.9425 51.1094 53.6971 51.2321 53.3971 51.2321ZM6.0876 51.2321C6.16259 51.2321 6.22394 51.1708 6.22394 51.0958C6.22394 51.0208 6.16259 50.9594 6.0876 50.9594C6.01262 50.9594 5.95127 51.0208 5.95127 51.0958C5.95127 51.1708 6.01262 51.2321 6.0876 51.2321ZM8.5417 51.2321C8.61669 51.2321 8.67804 51.1708 8.67804 51.0958C8.67804 51.0208 8.61669 50.9594 8.5417 50.9594C8.46671 50.9594 8.40536 51.0208 8.40536 51.0958C8.40536 51.1708 8.46671 51.2321 8.5417 51.2321ZM12.0145 53.3219C16.2626 54.3957 19.2536 53.3983 17.5223 51.4851C16.9445 50.8465 16.7223 50.858 14.1316 51.658C13.0068 52.0051 11.4217 52.2969 10.6094 52.3062C8.6614 52.3283 8.97226 52.553 12.0145 53.3219ZM29.6742 51.7775C29.8242 51.7775 29.9469 51.6548 29.9469 51.5048C29.9469 51.3548 29.8242 51.2321 29.6742 51.2321C29.5242 51.2321 29.4015 51.3548 29.4015 51.5048C29.4015 51.6548 29.5242 51.7775 29.6742 51.7775ZM39.8996 51.7775C39.9746 51.7775 40.0359 51.7161 40.0359 51.6411C40.0359 51.5661 39.9746 51.5048 39.8996 51.5048C39.8246 51.5048 39.7632 51.5661 39.7632 51.6411C39.7632 51.7161 39.8246 51.7775 39.8996 51.7775ZM40.9911 52.3242C40.9238 52.2154 40.9472 52.0477 41.0432 51.9517C41.3066 51.6883 42.49 51.7428 42.49 52.0182C42.49 52.3206 41.1572 52.5928 40.9911 52.3242ZM54.2397 52.7166C53.9209 52.9137 53.1244 52.6116 53.1244 52.2936C53.1244 52.1598 53.4312 52.0501 53.8061 52.0501C54.4799 52.0501 54.7204 52.4196 54.2397 52.7166ZM77.8151 60.2305C78.4106 60.2305 78.3855 54.3297 77.7862 53.4743C77.3226 52.8123 76.257 52.6686 75.8213 53.209C75.2121 53.9649 75.262 57.2509 75.8799 57.0617C76.7184 56.8048 76.7617 56.6791 76.1651 56.2385C75.6549 55.8616 75.6506 55.8191 76.0975 55.5658C76.3598 55.4169 76.5747 55.0559 76.5747 54.7633C76.5747 54.471 76.6974 54.2316 76.8474 54.2316C76.9973 54.2316 77.12 54.4696 77.12 54.7608C77.12 55.052 77.2335 55.3602 77.372 55.4458C77.5108 55.5314 77.5781 56.6431 77.5217 57.916C77.438 59.8043 77.492 60.2305 77.8151 60.2305ZM10.3141 55.5821C10.9841 55.2061 10.9726 55.1966 9.63241 55.0122C6.5108 54.583 2.40646 54.9154 2.40646 55.5977C2.40646 56.3175 9.02679 56.3047 10.3141 55.5821ZM45.0805 55.3223C45.1554 55.3223 45.2168 55.2609 45.2168 55.1859C45.2168 55.1109 45.1554 55.0496 45.0805 55.0496C45.0055 55.0496 44.9441 55.1109 44.9441 55.1859C44.9441 55.2609 45.0055 55.3223 45.0805 55.3223ZM17.1215 59.1577C17.5946 58.2737 17.4441 57.793 16.5175 57.228C15.4557 56.5807 15.3068 56.5815 13.0409 57.2509C10.4496 58.016 8.75139 58.286 8.44626 57.9809C8.27993 57.8145 8.00971 57.8181 7.70185 57.9904C7.17286 58.2863 7.81556 58.4531 12.6319 59.2701C15.9334 59.8299 16.773 59.8089 17.1215 59.1577ZM9.51216 57.7764C9.67086 57.7764 9.72512 57.6537 9.63241 57.5037C9.5397 57.3537 9.4099 57.231 9.34364 57.231C9.27738 57.231 9.22339 57.3537 9.22339 57.5037C9.22339 57.6537 9.35346 57.7764 9.51216 57.7764ZM76.236 58.5513C76.4222 58.3651 76.5747 58.0531 76.5747 57.8582C76.5747 57.6618 76.2706 57.5037 75.893 57.5037C75.2257 57.5037 75.2113 57.5479 75.2113 59.5687C75.2113 61.3836 75.2688 61.6227 75.6855 61.5426C76.3339 61.4177 76.4888 60.5031 75.8616 60.5031C75.4474 60.5031 75.4673 60.4227 76.0048 59.9223C76.494 59.4661 76.5496 59.2927 76.2627 59.1155C75.9718 58.9358 75.9666 58.8207 76.236 58.5513ZM62.3955 58.3217C62.1956 58.3217 62.1138 58.4035 62.2136 58.5036C62.3137 58.6034 62.4773 58.6034 62.5773 58.5036C62.6771 58.4035 62.5953 58.3217 62.3955 58.3217ZM17.54 60.7758C17.615 60.7758 17.6764 60.7145 17.6764 60.6395C17.6764 60.5645 17.615 60.5031 17.54 60.5031C17.4651 60.5031 17.4037 60.5645 17.4037 60.6395C17.4037 60.7145 17.4651 60.7758 17.54 60.7758ZM58.3053 60.5031C58.1054 60.5031 58.0236 60.5849 58.1234 60.685C58.2235 60.7848 58.3871 60.7848 58.4872 60.685C58.587 60.5849 58.5052 60.5031 58.3053 60.5031ZM8.32301 61.812C10.4796 61.5 11.0083 61.2685 10.2386 60.9732C9.35046 60.6324 3.34747 60.7603 2.84193 61.1308C1.48018 62.1288 3.98117 62.4397 8.32301 61.812ZM77.4914 61.2383C77.7862 61.5328 78.4834 61.5742 78.4834 61.2972C78.4834 61.1603 78.2176 61.0485 77.8925 61.0485C77.5678 61.0485 77.3873 61.1338 77.4914 61.2383ZM75.9001 64.0616C76.3748 64.9799 77.0576 65.0882 77.928 64.3836C78.8115 63.6684 78.6443 61.8253 77.7273 62.1676C77.1994 62.3647 77.1552 62.4757 77.4295 62.9147C77.8514 63.5904 77.5536 64.3206 76.8558 64.3206C76.2805 64.3206 76.2109 64.1439 76.2935 62.8891C76.3282 62.3674 76.2123 62.1392 75.9134 62.1392C75.3643 62.1392 75.358 63.0134 75.9001 64.0616ZM1.99745 62.4119C2.07243 62.4119 2.13378 62.3505 2.13378 62.2755C2.13378 62.2006 2.07243 62.1392 1.99745 62.1392C1.92246 62.1392 1.86111 62.2006 1.86111 62.2755C1.86111 62.3505 1.92246 62.4119 1.99745 62.4119ZM15.1934 65.8111C16.8093 66.324 17.879 64.2235 16.5647 63.1178C15.597 62.3034 15.3455 62.2954 13.3136 63.0167C12.4887 63.3095 10.9113 63.7229 9.80801 63.9359C8.70476 64.1486 7.39509 64.5156 6.898 64.7514C6.17895 65.0928 5.87192 65.1152 5.398 64.8616C5.00208 64.6497 4.71086 64.6339 4.53034 64.8144C3.76358 65.5812 6.15986 66.039 6.95963 65.2785C7.87173 64.4109 11.5264 64.6473 15.1934 65.8111ZM69.5775 81.3081C68.7472 77.9177 68.5885 75.9841 68.6147 69.5696C68.6381 63.9037 68.5841 62.9572 68.2387 62.9572C65.8925 62.9572 65.8459 77.9973 68.1776 82.7795C69.082 84.6348 70.1242 83.5395 69.5775 81.3081ZM47.9114 64.3206C48.0614 64.3206 48.2599 64.1979 48.3526 64.0479C48.4453 63.898 48.3984 63.7753 48.2484 63.7753C48.0984 63.7753 47.8999 63.898 47.8072 64.0479C47.7145 64.1979 47.7614 64.3206 47.9114 64.3206ZM9.07751 67.56C10.8507 67.235 11.3263 66.7753 9.89145 66.7728C9.29892 66.7717 8.0168 66.7172 7.04197 66.6515C6.06715 66.5857 5.08552 66.5784 4.86056 66.6351C4.6356 66.6921 3.99699 66.8123 3.44127 66.9029C2.65023 67.0318 2.46836 67.1641 2.60252 67.5137C2.73122 67.8491 2.66032 67.9164 2.31757 67.785C2.06643 67.6887 1.86111 67.7405 1.86111 67.9003C1.86111 68.2221 6.71094 67.9936 9.07751 67.56ZM41.7069 67.8559C41.9509 67.8611 42.3032 67.6814 42.49 67.4564C42.9053 66.956 42.8197 66.956 41.9447 67.4564C41.4757 67.7244 41.4015 67.8491 41.7069 67.8559ZM39.2893 68.5989C39.7643 69.0739 40.2306 68.9463 39.9108 68.429C39.8121 68.269 39.5279 68.1381 39.2798 68.1381C38.8634 68.1381 38.8642 68.1741 39.2893 68.5989ZM3.49717 68.4108C3.2973 68.4108 3.2155 68.4926 3.31529 68.5926C3.41537 68.6924 3.57897 68.6924 3.67905 68.5926C3.77885 68.4926 3.69704 68.4108 3.49717 68.4108ZM19.0398 69.2288C19.0398 69.4287 19.1216 69.5105 19.2216 69.4107C19.3214 69.3106 19.3214 69.147 19.2216 69.0469C19.1216 68.9471 19.0398 69.0289 19.0398 69.2288ZM42.3537 69.7742C42.4287 69.7742 42.49 69.7128 42.49 69.6378C42.49 69.5628 42.4287 69.5015 42.3537 69.5015C42.2787 69.5015 42.2173 69.5628 42.2173 69.6378C42.2173 69.7128 42.2787 69.7742 42.3537 69.7742ZM72.3482 69.7742C72.4232 69.7742 72.4845 69.7128 72.4845 69.6378C72.4845 69.5628 72.4232 69.5015 72.3482 69.5015C72.2732 69.5015 72.2118 69.5628 72.2118 69.6378C72.2118 69.7128 72.2732 69.7742 72.3482 69.7742ZM39.8996 71.1376C39.9746 71.1376 40.0359 71.0762 40.0359 71.0012C40.0359 70.9262 39.9746 70.8649 39.8996 70.8649C39.8246 70.8649 39.7632 70.9262 39.7632 71.0012C39.7632 71.0762 39.8246 71.1376 39.8996 71.1376ZM38.6725 72.3646C38.8225 72.2719 38.9452 72.1421 38.9452 72.0758C38.9452 72.0096 38.8225 71.9556 38.6725 71.9556C38.5226 71.9556 38.3999 72.0856 38.3999 72.2443C38.3999 72.403 38.5226 72.4573 38.6725 72.3646ZM17.2532 72.6051C17.4861 72.5157 17.6764 72.3943 17.6764 72.3354C17.6764 72.1146 17.1567 72.2386 16.9966 72.4979C16.9012 72.6523 17.0105 72.6981 17.2532 72.6051ZM16.2707 73.2085C16.4439 73.1016 16.5857 72.9601 16.5857 72.8939C16.5857 72.6665 16.3449 72.7742 16.1508 73.0886C16.03 73.2835 16.0758 73.3293 16.2707 73.2085ZM30.2607 73.7536C30.3881 73.8321 30.4922 73.6437 30.4922 73.3351C30.4922 72.6171 30.1675 72.6223 29.5119 73.3512C29.2262 73.6688 28.7471 74.0247 28.4471 74.1419C27.9582 74.3331 27.9498 74.3745 28.3648 74.5425C28.6571 74.6608 29.0495 74.5234 29.4288 74.1703C29.759 73.8624 30.1336 73.6748 30.2607 73.7536ZM10.9691 75.4169C11.3587 74.9962 11.6775 74.3521 11.6775 73.9854C11.6775 73.6189 11.6161 73.319 11.5411 73.319C11.4662 73.319 11.4048 73.6091 11.4048 73.9638C11.4048 74.3186 11.1474 74.9627 10.8327 75.3954L10.2609 76.1821L10.9691 75.4169ZM34.0048 74.6824C34.1548 74.6824 34.3533 74.5596 34.446 74.4097C34.5387 74.2597 34.4918 74.137 34.3419 74.137C34.1919 74.137 33.9934 74.2597 33.9007 74.4097C33.808 74.5596 33.8549 74.6824 34.0048 74.6824ZM32.3609 76.4599C32.5659 76.6653 33.4917 75.7335 33.4917 75.3218C33.4917 74.7012 31.9311 75.1006 30.9751 75.9661C30.2474 76.6246 30.3921 76.8545 31.3604 76.5766C31.8379 76.4398 32.2881 76.3871 32.3609 76.4599ZM45.7621 77.1364C45.7621 77.3363 45.844 77.4181 45.944 77.3183C46.0438 77.2182 46.0438 77.0546 45.944 76.9546C45.844 76.8548 45.7621 76.9366 45.7621 77.1364ZM4.45154 77.4091C4.52653 77.4091 4.58788 77.3478 4.58788 77.2728C4.58788 77.1978 4.52653 77.1364 4.45154 77.1364C4.37655 77.1364 4.3152 77.1978 4.3152 77.2728C4.3152 77.3478 4.37655 77.4091 4.45154 77.4091ZM4.41555 84.4987C2.89183 84.4987 2.57934 82.1971 3.78266 79.8381C4.50117 78.4298 5.24339 78.4131 5.70558 79.7951C6.52307 82.2382 5.903 84.4987 4.41555 84.4987ZM28.8562 79.8632C28.6563 79.8632 28.5745 79.945 28.6743 80.0451C28.7744 80.1449 28.938 80.1449 29.038 80.0451C29.1378 79.945 29.056 79.8632 28.8562 79.8632ZM4.52435 83.1353C4.67432 83.1353 4.85019 82.9205 4.91536 82.6582C4.98053 82.3959 4.9459 81.8742 4.8382 81.4993C4.67814 80.9422 4.63669 80.9174 4.61133 81.3629C4.59442 81.6629 4.50635 82.1842 4.41609 82.5218C4.32556 82.8594 4.37437 83.1353 4.52435 83.1353ZM64.4405 85.0441C64.5155 85.0441 64.5769 84.9827 64.5769 84.9078C64.5769 84.8328 64.5155 84.7714 64.4405 84.7714C64.3656 84.7714 64.3042 84.8328 64.3042 84.9078C64.3042 84.9827 64.3656 85.0441 64.4405 85.0441ZM3.25312 94.3298C0.858745 93.1082 0.269763 88.7247 2.33829 87.52C3.13206 87.0578 7.63832 87.1552 8.34455 87.6501C9.95008 88.7746 8.66795 93.5252 6.53698 94.3478C6.10887 94.5131 5.95045 94.7375 6.05979 95.023C6.15005 95.258 6.22394 95.985 6.22394 96.6383C6.22394 97.75 6.26948 97.8228 6.93536 97.7748C8.03643 97.6955 8.44654 98.5664 7.62523 99.2405C6.64905 100.042 3.15033 100.008 2.57879 99.1919C1.9999 98.3655 2.30775 97.8599 3.39001 97.8599H4.3152V96.3656C4.3152 94.9038 4.2923 94.8599 3.25312 94.3298ZM6.33274 92.9146C7.10687 92.5618 7.63232 90.7218 7.39264 89.2024C7.25712 88.3429 7.21458 88.3173 5.98862 88.3549L4.72422 88.3937L5.81493 88.5594C7.36673 88.7953 7.57015 90.6953 6.20949 92.2447C5.27912 93.3046 5.29439 93.3877 6.33274 92.9146ZM16.2113 97.8959C14.0012 95.5893 14.5556 90.8865 17.1905 89.5877C20.7642 87.8265 24.4429 91.4081 21.7875 94.0634C20.9035 94.9474 19.3926 95.2103 19.6928 94.4277C20.4378 92.4863 20.0274 91.3009 18.8762 92.0696C16.8704 93.409 18.294 96.21 20.9957 96.2402L22.4482 96.2563L19.9966 97.4673C18.1178 98.3951 17.485 98.7187 17.0132 98.561C16.7565 98.4752 16.5475 98.2469 16.2113 97.8959ZM16.3749 90.923C16.5925 91.1406 18.8628 90.3468 18.9735 90.0145C19.0349 89.8304 18.9217 89.6851 18.7216 89.6916C18.2558 89.7071 16.2247 90.773 16.3749 90.923ZM42.7627 92.1337V91.3157V90.4976H46.8848H51.0065L50.8811 91.1537C50.7216 91.9881 51.3509 92.1337 55.1185 92.1337C59.4118 92.1337 60.4867 93.2004 60.4867 97.4602V99.7687H46.8504H33.2144L33.3943 98.2008C33.4933 97.3383 33.709 96.5314 33.8737 96.4076C34.0867 96.2476 34.0747 96.1423 33.8325 96.0442C32.9567 95.6886 33.8508 93.4963 35.2093 92.6681C35.9493 92.2169 36.5906 92.1356 39.4224 92.1348L42.7627 92.1337ZM40.0359 93.2244C39.8361 93.2244 39.7542 93.3062 39.854 93.4063C39.9541 93.5061 40.1177 93.5061 40.2178 93.4063C40.3176 93.3062 40.2358 93.2244 40.0359 93.2244ZM58.169 94.1008C58.019 93.9478 56.2529 93.6882 54.2443 93.5235C49.9177 93.1691 41.3055 93.1246 41.5114 93.4578C41.5907 93.586 45.003 93.7698 49.0943 93.8663C53.1855 93.9625 56.9624 94.1172 57.4873 94.2099C58.1338 94.3241 58.3536 94.2889 58.169 94.1008ZM26.1455 94.8482C26.3792 94.855 26.8086 94.6802 27.0998 94.4602C27.7461 93.9713 27.6081 93.9715 26.5384 94.4613C26.0885 94.6674 25.9115 94.8414 26.1455 94.8482ZM50.3977 96.7692C50.5476 96.7692 50.6703 96.5238 50.6703 96.2239C50.6703 95.9239 50.5476 95.6785 50.3977 95.6785C50.2477 95.6785 50.125 95.9239 50.125 96.2239C50.125 96.5238 50.2477 96.7692 50.3977 96.7692Z" fill="#22202B"/>
<path fill-rule="evenodd" clip-rule="evenodd" d="M35.1046 82.3173C35.1793 86.5291 37.3438 88.6712 41.8844 89.0274L43.7171 89.1711L42.3537 88.4517C40.638 87.5465 40.1897 87.1107 40.4027 86.5555C40.5535 86.1623 40.6369 86.1588 41.1899 86.5206C41.9498 87.018 44.1261 87.3995 44.1261 87.0352C44.1261 86.8923 43.8073 86.4778 43.4179 86.1141C42.6435 85.3915 41.8514 83.9692 41.5692 82.7945C41.3159 81.7411 41.9327 81.8221 42.6542 82.9371C42.9697 83.4244 43.8463 84.1598 44.6027 84.5713L45.9778 85.3198L45.9626 83.7167C45.9495 82.3342 46.1033 81.83 47.0819 80.047C47.7058 78.9102 48.2162 77.7903 48.2162 77.5583C48.2162 76.6214 48.8412 77.2363 49.6083 78.9282C50.4402 80.7628 50.4601 82.3672 49.6846 85.022C49.5262 85.5641 49.5725 85.6505 49.9447 85.5076C50.2916 85.3746 50.3977 85.4918 50.3977 86.0069C50.3977 86.6346 51.0453 86.9774 51.2612 86.4639C51.3613 86.2259 53.2226 85.0441 53.4975 85.0441C54.3389 85.0441 52.7102 87.177 50.943 88.3898L50.2613 88.8575L51.0794 88.6843C54.9154 87.8712 57.517 84.8598 57.4551 81.3038C57.4254 79.6121 57.0556 77.2657 56.97 78.2272C56.9384 78.5816 56.9002 78.5835 56.6831 78.2402C56.5452 78.0224 56.4852 77.7592 56.5493 77.6554C56.6136 77.5512 56.4827 77.396 56.2586 77.3099C56.0344 77.224 55.8512 77.293 55.8512 77.4631C55.8512 77.6333 55.78 77.7014 55.6928 77.6142C55.6055 77.5272 55.6761 77.1907 55.8498 76.8665C56.1326 76.3378 56.1023 76.2862 55.5564 76.3659C55.2216 76.4147 54.8952 76.3012 54.8311 76.1136C54.7531 75.8849 54.8791 75.832 55.2148 75.9528C55.6183 76.0984 55.5875 75.9934 55.0547 75.4088C54.3744 74.6619 53.8675 74.6166 54.4824 75.3575C54.755 75.6861 54.7561 75.7731 54.4878 75.7731C54.2653 75.7731 54.2342 75.8906 54.397 76.1139C54.5339 76.3015 54.5756 76.9456 54.49 77.5455L54.3346 78.6362L54.3128 78.5311L54.2151 78.8037L54.0242 79.0452V79.4854L54.1264 79.7581L54.0242 80.2041L53.8756 80.7125C53.8346 81.1083 53.7298 81.4542 53.5555 81.7362C53.1037 82.4673 52.8518 81.9195 52.8501 80.2041C52.8482 77.6202 51.3417 73.6473 50.4707 73.9287C50.0448 74.0664 48.9751 73.0899 49.1832 72.7532C49.3121 72.5446 49.2789 72.4862 49.0954 72.5996C48.9326 72.7003 48.4627 72.4704 48.0513 72.0892C47.6395 71.7077 47.2311 71.4909 47.143 71.6076C47.0549 71.7241 46.8616 71.9308 46.7132 72.0671C46.5472 72.2201 46.6293 72.2484 46.9273 72.1415C47.3379 71.994 47.3674 72.0491 47.1223 72.5072C46.9636 72.8036 46.9238 73.0463 47.0342 73.0463C47.1443 73.0463 47.0996 73.1813 46.9349 73.346C46.5758 73.7051 45.4919 73.4166 45.4835 72.9599C45.4767 72.5972 44.4143 71.1515 44.4048 71.492C44.4015 71.6117 44.6082 72.1025 44.8639 72.5827C45.1197 73.0626 45.3051 73.5428 45.2762 73.65C45.2471 73.7572 45.4055 73.7749 45.628 73.6895C45.9497 73.566 45.9994 73.701 45.8699 74.3478C45.7755 74.8201 45.833 75.2394 46.0073 75.3471C46.1725 75.4491 46.3075 75.7859 46.3075 76.0951C46.3075 76.3233 46.2915 76.4493 46.2357 76.486V77.4631L46.0825 77.8494L45.628 78.122L45.4835 78.3883L45.4008 78.6674L45.1281 79.0452L44.8639 79.1815L44.8078 79.2497L43.3678 79.2838C42.0581 79.3149 41.8506 79.2339 41.0748 78.3883C40.2162 77.4528 39.0497 77.4716 39.4118 78.4153C39.5056 78.6599 39.4077 78.7234 39.1118 78.61C38.9195 78.5362 38.7896 78.4926 38.7445 78.3883L38.4312 79.1394C38.5138 78.9839 38.5914 79.3456 38.6867 80.2921C38.7783 81.2029 38.9526 82.1084 39.0736 82.3045C39.1831 82.4816 39.1836 82.569 39.0736 82.5685L39.2655 82.7945L39.4019 83.0302L39.4118 83.2769C39.5737 83.4958 39.4446 83.6807 38.9681 83.6807C38.14 83.6807 36.2184 81.7275 36.2184 80.886C36.2184 80.0495 35.7186 79.6252 35.3742 80.1692C35.2541 80.3584 35.1528 80.4073 35.1347 80.2921L35.039 80.5761V80.9187C35.0793 80.989 35.0886 81.4264 35.1046 82.3173ZM51.352 75.7731C51.427 75.7731 51.4884 75.7117 51.4884 75.6367C51.4884 75.5617 51.427 75.5004 51.352 75.5004C51.277 75.5004 51.2157 75.5617 51.2157 75.6367C51.2157 75.7117 51.277 75.7731 51.352 75.7731ZM54.3515 79.3179C54.4265 79.3179 54.4878 79.2565 54.4878 79.1815C54.4878 79.1065 54.4265 79.0452 54.3515 79.0452C54.2765 79.0452 54.2151 79.1065 54.2151 79.1815C54.2151 79.2565 54.2765 79.3179 54.3515 79.3179ZM50.9515 80.9539C51.0968 80.9539 51.2157 80.7699 51.2157 80.5449C51.2157 80.32 51.1674 80.1359 51.1085 80.1359C51.0496 80.1359 50.9307 80.32 50.8443 80.5449C50.7581 80.7699 50.8064 80.9539 50.9515 80.9539Z" fill="#F58E06"/>
</svg>
