<?xml version="1.0" standalone="no"?>
<!DOCTYPE svg PUBLIC "-//W3C//DTD SVG 20010904//EN"
 "http://www.w3.org/TR/2001/REC-SVG-20010904/DTD/svg10.dtd">
<svg version="1.0" xmlns="http://www.w3.org/2000/svg"
 width="1072.000000pt" height="1072.000000pt" viewBox="0 0 1072.000000 1072.000000"
 preserveAspectRatio="xMidYMid meet">
<metadata>
Created by potrace 1.14, written by Peter Selinger 2001-2017
</metadata>
<g transform="translate(0.000000,1072.000000) scale(0.100000,-0.100000)"
fill="#000000" stroke="none">
<path d="M7517 10713 c-11 -11 -8 -48 5 -61 7 -7 29 -12 49 -12 21 0 40 -4 44
-10 9 -14 -50 -40 -93 -40 -51 0 -63 -26 -69 -150 -7 -133 13 -221 68 -302 61
-91 233 -259 296 -290 48 -24 55 -25 101 -13 80 21 141 -4 66 -28 -107 -35
-85 -88 133 -319 71 -75 138 -155 148 -177 17 -40 17 -42 0 -61 -30 -33 -56
-38 -506 -85 -170 -17 -195 -13 -253 44 -50 48 -95 60 -227 61 -223 0 -283
-63 -314 -328 -21 -179 -25 -164 50 -190 109 -40 107 -36 116 -208 5 -82 13
-189 18 -238 13 -116 9 -133 -38 -146 -62 -17 -84 -55 -82 -143 1 -55 28 -123
61 -152 12 -11 41 -27 63 -35 24 -9 47 -26 54 -40 16 -32 17 -111 0 -133 -11
-17 -17 -17 -92 -1 -44 9 -206 38 -360 63 l-280 46 -75 147 c-100 195 -129
238 -224 333 -64 63 -103 92 -185 135 -131 69 -208 141 -252 235 -21 43 -43
124 -65 233 -35 169 -35 175 -33 452 1 90 -30 235 -70 325 -16 37 -29 50 -63
64 -95 41 -264 34 -363 -14 -66 -33 -124 -43 -329 -56 -191 -13 -613 -6 -716
11 -70 12 -90 23 -90 50 0 26 -51 65 -112 87 -73 25 -242 25 -314 0 -93 -32
-125 -91 -145 -272 -22 -194 7 -397 68 -486 19 -29 38 -69 40 -90 5 -35 2 -42
-34 -76 -23 -21 -44 -51 -47 -66 -9 -38 -53 -55 -171 -66 -110 -11 -282 2
-352 25 -33 11 -64 33 -98 69 -57 60 -125 90 -228 101 -135 14 -285 -36 -319
-106 -37 -75 -52 -212 -52 -470 -1 -279 8 -340 55 -389 34 -36 39 -88 14 -149
-38 -91 -103 -117 -285 -117 -108 0 -130 3 -160 21 -20 11 -36 29 -38 42 -2
12 -15 30 -30 40 -51 33 -344 9 -409 -33 -13 -9 -29 -28 -35 -43 -15 -37 -23
-429 -9 -464 10 -25 15 -28 61 -28 66 0 71 -14 31 -85 -24 -42 -33 -73 -37
-123 -3 -37 -15 -105 -26 -152 -15 -63 -19 -103 -15 -154 8 -95 2 -118 -54
-181 -76 -87 -77 -128 -6 -169 23 -13 76 -31 117 -41 41 -9 80 -21 87 -27 9
-7 13 -38 13 -94 0 -93 10 -127 48 -167 35 -37 95 -53 291 -78 299 -38 501
-104 574 -190 40 -46 49 -77 36 -124 -21 -76 -117 -82 -327 -19 -403 120 -626
158 -917 159 -211 0 -300 -14 -435 -66 -149 -58 -238 -160 -226 -261 6 -58 22
-90 75 -149 49 -56 167 -120 264 -145 39 -9 66 -21 64 -28 -2 -6 -58 -29 -124
-52 -137 -46 -190 -76 -232 -134 -73 -101 -59 -222 36 -315 45 -44 102 -74
198 -105 39 -12 74 -25 79 -28 4 -2 -30 -17 -76 -32 -148 -47 -220 -118 -253
-248 -18 -67 -11 -132 19 -191 37 -71 124 -121 212 -121 105 0 98 -29 -20 -84
-223 -104 -292 -259 -187 -417 64 -95 177 -142 385 -159 275 -22 634 25 933
121 180 58 264 69 345 45 98 -28 157 -115 128 -187 -37 -88 -320 -232 -482
-246 l-67 -6 -41 41 c-52 52 -53 91 -3 106 39 11 54 43 28 62 -57 42 -530 23
-530 -21 0 -5 14 -16 30 -23 94 -40 101 -53 57 -104 -30 -33 -68 -55 -224
-128 -144 -67 -261 -203 -309 -362 -39 -126 6 -176 146 -165 142 12 215 49
215 112 0 47 8 64 41 80 40 21 52 19 143 -22 74 -34 89 -37 166 -37 106 1 146
18 251 105 98 82 210 148 374 221 479 216 587 364 437 600 -91 143 -102 163
-102 179 0 9 25 47 55 85 143 179 139 255 -20 433 l-75 84 70 73 c79 81 110
140 117 223 10 104 -38 205 -121 257 -26 16 -57 37 -69 46 l-22 17 81 80 c108
105 138 165 138 276 1 87 -18 137 -68 184 -14 14 -26 30 -26 36 0 6 21 54 47
106 46 91 47 97 48 184 0 78 -4 97 -27 140 -101 192 -303 297 -684 354 -258
39 -281 57 -159 122 142 77 159 138 71 245 -25 31 -48 66 -50 78 -3 11 -12
125 -22 251 -18 251 -14 296 30 340 34 34 87 45 211 45 123 0 171 -10 192 -40
49 -70 391 -64 457 9 30 34 49 139 50 286 1 161 -12 227 -55 281 -41 52 -38
77 17 133 54 54 64 76 64 139 1 92 49 157 155 210 112 56 165 67 330 67 l150
0 93 -38 c72 -29 116 -40 197 -48 109 -11 255 -1 295 21 61 33 88 231 55 413
-7 43 -20 87 -27 97 -7 10 -26 34 -42 54 -20 26 -30 52 -34 86 -4 48 -3 52 34
85 l39 36 5 107 5 107 505 0 c551 0 562 -1 626 -57 91 -80 149 -321 93 -391
-14 -19 -23 -51 -29 -109 -18 -170 -87 -290 -204 -356 -63 -36 -229 -199 -310
-305 -32 -42 -75 -109 -96 -149 -29 -57 -46 -78 -76 -95 -22 -12 -134 -47
-249 -78 -431 -115 -679 -216 -856 -349 -299 -225 -427 -519 -460 -1056 -11
-181 -9 -258 18 -740 8 -157 16 -429 17 -605 l1 -320 -41 3 c-33 3 -48 -2 -84
-30 -24 -18 -54 -53 -68 -78 -48 -90 -14 -279 65 -362 19 -20 44 -31 86 -39
l60 -12 -6 -726 c-7 -789 -14 -956 -54 -1221 -36 -235 -38 -436 -6 -495 25
-48 67 -88 108 -103 46 -18 160 -32 263 -32 l92 0 0 -59 c0 -367 -152 -792
-339 -949 -28 -24 -51 -47 -51 -53 0 -16 26 -10 45 11 21 23 96 53 121 48 23
-4 -21 -29 -363 -207 -271 -140 -318 -167 -346 -199 -18 -20 -18 -21 5 -35 79
-50 349 -66 489 -29 348 93 618 430 744 930 19 76 51 304 60 427 3 50 8 102
11 117 l5 26 223 4 c258 4 263 5 241 69 -24 67 -35 192 -25 272 15 118 54 258
88 311 17 27 37 74 43 105 16 73 24 83 68 79 44 -4 49 -18 50 -153 3 -224 53
-334 181 -394 30 -14 58 -27 63 -29 4 -2 7 3 7 11 0 9 -17 29 -38 46 -44 34
-57 70 -72 188 -16 124 17 245 116 433 109 206 172 280 207 245 18 -17 24 -55
32 -195 8 -128 19 -175 52 -219 32 -41 73 -59 186 -78 105 -18 123 -12 157 51
12 22 36 53 53 67 27 24 31 34 35 90 4 61 3 65 -26 86 -21 16 -36 41 -50 86
-12 34 -52 133 -91 218 -67 150 -90 213 -127 344 -25 90 -22 130 16 215 24 54
35 94 38 141 4 65 4 66 42 83 25 11 59 44 103 101 65 82 97 105 131 92 25 -10
36 -77 36 -222 0 -224 25 -289 177 -458 195 -217 254 -287 315 -377 149 -217
233 -417 254 -605 6 -52 8 -57 16 -35 5 14 7 46 3 72 -4 35 -1 54 11 73 15 24
14 35 -21 217 -38 198 -49 328 -29 348 49 49 328 -271 439 -501 66 -138 80
-198 80 -354 0 -162 -14 -211 -92 -347 -46 -78 -46 -81 -28 -95 14 -10 35 -13
70 -9 28 3 102 8 166 12 l116 7 12 -139 c33 -377 85 -585 206 -829 114 -230
227 -348 437 -455 155 -80 214 -94 348 -87 189 11 376 75 479 163 60 52 133
166 162 255 20 61 24 94 24 189 -1 102 -4 125 -31 200 -73 208 -210 327 -386
338 -189 11 -365 -105 -398 -263 -15 -70 5 -153 55 -230 55 -86 163 -143 216
-114 18 9 20 16 14 52 -25 148 -23 224 8 254 13 14 20 14 46 3 35 -14 101 -83
127 -131 69 -132 -59 -310 -245 -340 -177 -28 -395 95 -509 287 -87 146 -182
506 -185 701 -2 85 1 105 15 119 15 15 22 16 60 5 62 -19 251 -29 361 -20 164
14 248 68 284 186 31 99 23 340 -21 676 -66 505 -80 693 -56 779 13 45 29 51
100 38 30 -6 143 -13 250 -16 215 -7 283 2 367 52 78 46 122 146 123 279 0
100 14 129 101 220 l79 82 -15 201 c-9 111 -22 391 -29 624 -8 235 -18 434
-24 448 -5 14 -29 43 -52 65 -52 50 -78 99 -95 180 -20 96 -35 135 -72 192
-41 63 -91 104 -167 139 -113 51 -229 53 -371 4 -32 -11 -75 -20 -97 -20 -36
0 -38 2 -38 30 0 53 60 148 243 390 207 272 439 542 661 768 152 155 249 232
291 232 28 0 43 17 51 59 7 32 36 61 64 61 8 0 26 19 40 41 14 22 94 109 177
192 158 157 225 242 286 362 49 98 88 148 151 194 38 28 58 51 66 77 40 121
-97 314 -224 314 -24 0 -50 -12 -92 -44 -161 -119 -502 -486 -693 -745 -88
-119 -101 -148 -101 -224 0 -90 0 -90 -421 -547 -338 -366 -452 -472 -479
-443 -11 11 -96 376 -112 475 -15 98 -4 142 35 146 16 2 64 -12 113 -33 404
-174 743 218 548 632 -85 180 -284 264 -482 204 -124 -37 -219 -115 -274 -226
-41 -82 -51 -144 -43 -265 4 -66 3 -110 -3 -114 -14 -9 -78 42 -163 130 -125
130 -190 249 -192 355 -2 66 19 104 66 124 67 28 107 99 107 190 0 97 -44 170
-109 180 -60 10 -81 23 -96 59 -19 44 -48 327 -40 377 4 22 22 58 43 83 20 25
44 67 52 93 27 85 78 96 543 113 283 10 367 19 408 41 30 15 49 70 49 137 0
73 17 167 37 206 9 17 135 179 282 360 366 455 392 492 431 606 33 97 22 389
-16 431 -23 26 -84 25 -280 -6 -226 -35 -367 -45 -629 -45 -265 0 -386 9 -649
50 -195 31 -238 35 -249 23z m411 -192 c64 -11 178 -29 252 -41 74 -12 142
-26 150 -30 30 -17 -20 -23 -129 -17 -217 13 -448 72 -425 108 3 6 13 8 21 5
8 -3 67 -15 131 -25z m1260 5 c5 -24 -14 -36 -60 -36 -47 0 -48 14 -5 40 38
24 60 22 65 -4z m-649 -75 c26 -16 4 -39 -45 -47 -75 -11 -132 19 -82 44 28
13 108 15 127 3z m381 -1 c8 -5 12 -11 9 -14 -21 -21 -259 -36 -259 -17 0 9
36 23 85 34 38 9 150 7 165 -3z m-400 -95 c0 -8 -4 -15 -10 -15 -5 0 -10 7
-10 15 0 8 5 15 10 15 6 0 10 -7 10 -15z m700 -40 c0 -19 -4 -37 -10 -40 -6
-4 -10 12 -10 40 0 28 4 44 10 40 6 -3 10 -21 10 -40z m-329 20 c0 -5 -9 -11
-21 -13 -20 -3 -27 8 -13 22 10 9 34 3 34 -9z m99 -378 c0 -45 -42 -108 -189
-282 -112 -134 -161 -178 -177 -162 -12 12 10 50 75 130 37 45 101 127 141
182 76 105 128 165 142 165 4 0 8 -15 8 -33z m-5159 -262 c0 -5 -9 -11 -21
-13 -20 -3 -27 8 -13 22 10 9 34 3 34 -9z m1656 -205 l1 -115 -13 80 c-16 90
-28 105 -89 106 -53 1 -118 21 -124 37 -3 10 21 12 110 10 l113 -3 2 -115z
m-1588 -15 c0 -49 -4 -99 -9 -110 -5 -13 -9 29 -9 110 0 81 4 123 9 110 5 -11
9 -60 9 -110z m201 70 c0 -8 -4 -15 -9 -15 -13 0 -22 16 -14 24 11 11 23 6 23
-9z m433 0 c26 -11 16 -28 -24 -38 -35 -10 -267 -3 -306 9 -13 3 -23 12 -23
19 0 8 10 16 23 19 33 7 309 0 330 -9z m2897 -408 c35 -18 52 -90 47 -196 -4
-57 -10 -88 -21 -99 -14 -14 -16 -13 -26 12 -5 15 -10 74 -10 132 l0 104 -57
0 c-73 0 -173 16 -187 30 -21 21 18 30 124 30 65 0 115 -5 130 -13z m280 -58
c0 -5 -7 -9 -15 -9 -15 0 -20 12 -9 23 8 8 24 -1 24 -14z m828 -36 c-5 -28
-67 -63 -109 -63 -22 0 -39 4 -39 9 0 11 111 70 133 71 12 0 17 -6 15 -17z
m-4850 -251 c4 -14 -34 -16 -42 -3 -6 10 13 21 28 17 6 -1 12 -8 14 -14z m279
-12 c25 -16 55 -69 46 -83 -3 -5 -17 2 -32 16 -40 38 -82 55 -163 68 -40 6
-75 13 -78 16 -13 13 207 -4 227 -17z m-1387 -11 c104 -22 28 -65 -93 -51 -50
5 -66 17 -49 34 8 8 52 22 84 27 4 1 30 -4 58 -10z m176 -34 c8 -13 24 -65 34
-117 26 -125 26 -238 0 -238 -15 0 -22 37 -29 164 l-7 129 -37 31 c-37 31 -48
61 -24 69 17 6 44 -10 63 -38z m2909 -201 c20 -20 34 -38 31 -41 -5 -5 -91 52
-101 67 -16 26 39 6 70 -26z m-1885 -149 c0 -8 -4 -15 -9 -15 -13 0 -22 16
-14 24 11 11 23 6 23 -9z m120 -6 c0 -5 -7 -9 -15 -9 -15 0 -20 12 -9 23 8 8
24 -1 24 -14z m1819 -48 c130 -44 203 -91 316 -205 109 -110 153 -178 157
-246 6 -87 -41 -59 -219 130 -205 218 -265 256 -427 270 -118 10 -168 25 -164
49 10 50 191 51 337 2z m4219 -63 c-3 -7 -11 -13 -18 -13 -7 0 -15 6 -17 13
-3 7 4 12 17 12 13 0 20 -5 18 -12z m-2398 -156 c36 -12 76 -31 88 -42 22 -20
29 -61 16 -94 -15 -38 -54 -3 -54 48 0 14 -8 29 -17 34 -10 5 -88 12 -173 16
-168 7 -203 12 -197 30 14 43 214 47 337 8z m-4844 -49 c50 -19 -31 -43 -146
-43 -98 0 -131 12 -85 30 65 26 181 32 231 13z m6893 -128 c-43 -60 -170 -197
-177 -191 -11 12 178 236 200 236 5 0 -5 -20 -23 -45z m255 -177 c9 -12 13
-24 11 -27 -6 -5 -45 29 -45 41 0 15 19 8 34 -14z m-8124 -57 c13 -10 31 -38
38 -62 18 -56 22 -273 5 -290 -20 -20 -33 24 -43 140 -6 60 -14 121 -19 134
-14 35 -54 63 -114 78 l-52 13 35 7 c51 10 121 1 150 -20z m900 11 c27 -22 19
-42 -14 -42 -30 0 -72 33 -62 48 11 18 51 14 76 -6z m5825 -37 c51 -21 132
-102 161 -160 57 -117 40 -247 -43 -337 -80 -84 -195 -106 -304 -56 -76 35
-114 70 -146 136 -37 76 -39 192 -5 263 27 55 82 109 140 140 78 40 127 43
197 14z m863 -27 c-3 -21 -96 -94 -106 -83 -7 6 88 105 101 105 5 0 7 -10 5
-22z m-7230 -59 c16 -25 4 -43 -21 -33 -20 7 -23 54 -4 54 7 0 18 -10 25 -21z
m3782 -49 c615 -25 950 -63 1224 -140 450 -127 684 -352 789 -760 51 -198 62
-309 62 -660 0 -212 -6 -400 -17 -540 -27 -342 -30 -404 -23 -454 8 -49 27
-61 45 -26 12 22 35 26 45 10 9 -14 -19 -55 -62 -93 -62 -54 -88 -130 -61
-180 19 -37 40 -46 101 -47 107 0 116 28 126 396 9 372 -6 355 290 331 106 -8
198 -20 203 -25 31 -31 -32 -137 -93 -157 -56 -19 -64 -57 -48 -250 10 -108
13 -280 11 -526 -4 -467 9 -560 89 -640 21 -21 46 -53 55 -71 17 -33 35 -146
25 -153 -4 -2 -89 0 -190 5 -219 9 -236 6 -236 -41 0 -48 -34 -48 -50 1 -9 27
-18 36 -41 40 -57 10 -78 107 -71 335 5 177 20 246 62 285 57 53 88 213 63
320 l-13 55 -1550 -3 c-1779 -4 -2765 9 -2765 38 0 44 457 58 2275 71 1404 10
1612 13 1627 27 3 4 -2 57 -13 117 -33 190 -66 426 -123 865 -64 491 -95 670
-143 830 -130 432 -339 600 -888 714 -324 67 -937 135 -1406 156 -394 18 -679
-3 -1086 -81 -117 -22 -227 -39 -245 -37 -31 4 -29 6 45 41 424 201 1084 283
1987 247z m-4265 -365 c0 -24 -48 -34 -71 -14 -22 18 2 41 40 37 23 -2 31 -8
31 -23z m115 15 c0 -5 -9 -10 -20 -10 -11 0 -20 5 -20 10 0 6 9 10 20 10 11 0
20 -4 20 -10z m1953 -124 c6 -15 -1 -26 -15 -26 -4 0 -8 9 -8 20 0 23 15 27
23 6z m-53 -104 c0 -13 -39 -46 -46 -39 -9 9 16 47 31 47 8 0 15 -4 15 -8z
m-2040 -31 c0 -12 -21 -19 -37 -13 -22 8 -14 22 12 22 14 0 25 -4 25 -9z
m4950 -345 c0 -37 -22 -47 -92 -44 l-63 3 70 36 c39 21 73 35 78 32 4 -2 7
-15 7 -27z m-4671 -89 c25 -17 41 -35 41 -47 0 -24 -11 -25 -53 -3 -18 9 -77
32 -132 50 l-100 33 101 -3 c91 -2 106 -5 143 -30z m3361 -216 c0 -15 -49 -68
-50 -54 0 22 23 63 37 63 7 0 13 -4 13 -9z m-2771 -336 c30 -34 36 -45 26 -45
-9 0 -75 62 -75 71 0 18 19 8 49 -26z m3376 -80 c236 -79 421 -235 521 -440
37 -76 114 -320 114 -361 0 -30 -37 -34 -182 -18 -85 9 -206 14 -298 12 -85
-1 -161 1 -169 6 -19 12 -9 51 49 173 120 254 95 287 -90 118 -80 -74 -124
-106 -186 -136 -87 -41 -116 -68 -160 -150 l-28 -50 -250 3 c-268 3 -290 7
-302 53 -11 45 51 260 112 384 52 106 65 124 158 216 126 125 226 181 387 215
81 17 235 5 324 -25z m-3246 -54 c35 -49 23 -71 -16 -28 -20 22 -43 60 -43 72
0 13 40 -17 59 -44z m5878 -197 c16 -41 -36 -118 -57 -84 -14 21 -12 74 2 88
17 17 48 15 55 -4z m158 -97 c0 -26 -20 -25 -23 2 -3 16 1 22 10 19 7 -3 13
-12 13 -21z m-267 -19 c5 -24 -42 -73 -61 -65 -24 9 -21 34 8 63 27 27 48 28
53 2z m-6818 2 c74 -6 163 -15 196 -21 66 -11 132 -45 118 -59 -5 -5 -81 -21
-169 -36 -304 -51 -672 -29 -769 47 -20 16 -24 24 -16 34 31 37 371 55 640 35z
m-460 -200 c0 -5 -18 -10 -40 -10 -22 0 -40 5 -40 10 0 6 18 10 40 10 22 0 40
-4 40 -10z m330 0 c0 -5 -9 -10 -20 -10 -11 0 -20 5 -20 10 0 6 9 10 20 10 11
0 20 -4 20 -10z m-170 -29 c0 -6 -4 -13 -10 -16 -5 -3 -10 1 -10 9 0 9 5 16
10 16 6 0 10 -4 10 -9z m268 -2 c-2 -6 -8 -10 -13 -10 -5 0 -11 4 -13 10 -2 6
4 11 13 11 9 0 15 -5 13 -11z m929 -31 c93 -89 82 -176 -28 -222 -88 -37 -273
-40 -445 -7 -100 19 -300 73 -344 92 -60 27 -43 35 95 43 122 7 259 35 470 96
166 47 201 47 252 -2z m1327 7 c20 -21 10 -45 -20 -45 -19 0 -24 5 -24 24 0
13 6 27 13 29 6 3 13 6 14 6 1 1 8 -6 17 -14z m1086 -36 c0 -5 -7 -9 -15 -9
-15 0 -20 12 -9 23 8 8 24 -1 24 -14z m3963 -143 c77 -33 93 -76 109 -302 14
-192 0 -409 -27 -451 -15 -23 -18 -24 -33 -10 -13 14 -15 52 -16 249 -1 202
-3 236 -18 258 -9 14 -20 45 -24 68 -10 66 -53 68 -54 4 0 -34 -28 -76 -63
-97 l-31 -18 47 -41 c26 -23 47 -46 47 -52 0 -6 -19 -19 -41 -30 -41 -18 -41
-18 -60 4 -33 42 -39 240 -8 340 24 80 93 112 172 78z m-7220 -211 c59 -8 115
-18 124 -23 15 -9 12 -13 -18 -31 -64 -40 -169 -57 -401 -67 -158 -7 -368 7
-427 27 -24 9 -31 16 -29 33 4 25 70 50 170 64 103 15 461 13 581 -3z m3807
-20 c0 -8 -4 -15 -9 -15 -13 0 -22 16 -14 24 11 11 23 6 23 -9z m-3110 -191
c76 -35 120 -71 137 -111 12 -31 12 -40 -2 -84 -40 -119 -95 -122 -635 -28
-332 58 -402 75 -398 98 6 28 52 36 93 17 59 -28 132 -15 560 99 72 19 144 34
160 35 17 0 55 -12 85 -26z m-692 -46 c18 -18 14 -38 -7 -38 -23 0 -35 15 -27
35 7 18 18 19 34 3z m7130 -24 c30 -21 28 -42 -10 -94 l-32 -43 22 -15 c33
-22 27 -48 -24 -102 -45 -48 -46 -50 -21 -50 28 0 57 -23 57 -46 0 -20 -54
-74 -73 -74 -37 0 -42 28 -42 222 0 176 1 191 19 204 26 19 76 18 104 -2z
m-1473 -83 c3 -5 1 -13 -5 -16 -15 -9 -43 3 -35 15 8 13 32 13 40 1z m-4793
-236 c0 -5 -5 -11 -11 -13 -6 -2 -11 4 -11 13 0 9 5 15 11 13 6 -2 11 -8 11
-13z m4358 0 c0 -8 -9 -15 -20 -15 -11 0 -20 7 -20 15 0 8 9 15 20 15 11 0 20
-7 20 -15z m-5155 -37 c89 -30 37 -56 -171 -88 -316 -48 -584 -50 -634 -5 -11
10 -20 22 -20 27 0 20 54 57 93 64 151 26 658 27 732 2z m7270 -21 c43 -32
-29 -52 -74 -21 -18 13 -20 18 -10 25 21 13 63 11 84 -4z m-8127 -119 c-6 -18
-28 -21 -28 -4 0 9 7 16 16 16 9 0 14 -5 12 -12z m7900 0 c8 -8 12 -46 12
-105 0 -100 7 -113 62 -113 67 0 94 70 57 145 l-24 47 24 19 c59 48 113 9 113
-80 -1 -64 -30 -120 -80 -154 -91 -60 -153 -39 -204 68 -35 75 -45 133 -29
164 13 23 50 28 69 9z m-6412 -54 c55 -31 102 -86 110 -129 21 -112 -64 -215
-165 -202 -20 2 -106 23 -191 45 -207 54 -363 75 -515 70 -125 -5 -157 -14
-245 -70 -71 -46 -240 -21 -240 35 0 47 45 61 102 31 40 -21 104 -14 193 21
39 15 165 49 280 76 116 27 282 71 370 99 219 67 225 68 301 24z m5589 -47 c4
-12 11 -321 15 -687 5 -390 13 -711 20 -775 11 -109 40 -271 79 -455 25 -115
26 -167 5 -220 -29 -72 -89 -62 -138 22 -76 133 -141 413 -178 768 -20 197
-17 822 5 980 22 153 49 259 85 325 39 72 91 92 107 42z m-2145 -77 c0 -25
-45 -49 -61 -33 -8 8 -5 17 10 32 27 27 51 27 51 1z m-4235 -296 c181 -6 215
-11 215 -28 0 -31 -140 -64 -380 -91 -165 -18 -472 -31 -524 -21 -49 9 -43 32
8 28 37 -4 38 -3 32 26 -5 19 -2 33 7 41 8 6 68 23 133 36 100 20 139 23 239
19 66 -2 188 -7 270 -10z m3605 -79 c-37 -36 -107 -61 -98 -34 5 16 95 68 118
69 9 0 1 -13 -20 -35z m-281 -96 c25 -23 25 -52 -1 -57 -16 -3 -88 53 -88 69
0 18 66 9 89 -12z m-3859 -23 c-6 -8 -18 -12 -26 -9 -23 9 -16 23 12 23 22 0
24 -2 14 -14z m1665 -71 c0 -10 -6 -20 -12 -22 -8 -3 -13 5 -13 22 0 17 5 25
13 23 6 -3 12 -13 12 -23z m2475 -40 c0 -8 -7 -15 -15 -15 -16 0 -20 12 -8 23
11 12 23 8 23 -8z m3200 -6 c0 -5 -7 -9 -15 -9 -15 0 -20 12 -9 23 8 8 24 -1
24 -14z m-3460 -145 c0 -9 -5 -14 -12 -12 -18 6 -21 28 -4 28 9 0 16 -7 16
-16z m-125 -104 c8 -13 -13 -40 -31 -40 -17 0 -18 37 -1 43 19 8 25 8 32 -3z
m-2261 -29 c8 -12 -13 -28 -47 -36 -33 -9 -36 8 -5 29 25 18 44 20 52 7z
m-114 -66 c0 -15 -38 -40 -47 -31 -7 7 26 46 39 46 4 0 8 -7 8 -15z m1478 -49
c-3 -35 -7 -41 -28 -44 -14 -2 -42 -17 -63 -33 -55 -44 -101 -61 -132 -49 -34
13 -31 27 10 44 19 8 59 37 88 64 28 27 63 56 76 65 35 23 53 6 49 -47z
m-2002 -74 c-8 -50 -45 -117 -89 -159 l-39 -38 40 63 c36 56 62 131 62 181 0
10 3 21 7 25 12 12 25 -37 19 -72z m2434 -27 c0 -18 -45 -49 -60 -40 -14 9
-13 21 6 39 20 20 54 21 54 1z m-126 -81 c23 -9 20 -44 -9 -86 -33 -48 -58
-62 -120 -65 -28 -1 -63 -7 -79 -12 -35 -14 -83 -14 -91 0 -10 16 83 101 140
128 81 39 125 48 159 35z m1353 -228 c-4 -9 -11 -16 -17 -16 -11 0 -14 33 -3
44 11 10 26 -11 20 -28z m-4419 -7 c-2 -6 -8 -10 -13 -10 -5 0 -11 4 -13 10
-2 6 4 11 13 11 9 0 15 -5 13 -11z m2610 -291 c-3 -7 -11 -13 -18 -13 -7 0
-15 6 -17 13 -3 7 4 12 17 12 13 0 20 -5 18 -12z m3790 -526 c2 -7 -3 -12 -12
-12 -9 0 -16 7 -16 16 0 17 22 14 28 -4z m-3963 -992 c-9 -15 -86 -58 -117
-65 -51 -13 -30 15 35 45 63 31 93 38 82 20z"/>
<path d="M8393 7658 c-6 -7 -13 -30 -17 -51 -4 -21 -28 -83 -53 -139 -50 -110
-49 -126 3 -140 42 -12 81 8 93 46 14 46 22 256 10 278 -11 21 -23 23 -36 6z"/>
<path d="M5460 5781 c-14 -26 -12 -57 4 -111 l14 -45 12 30 c19 47 24 113 10
130 -17 20 -27 19 -40 -4z"/>
<path d="M5665 5784 c-18 -18 -21 -129 -4 -140 21 -13 43 25 47 84 3 47 1 60
-12 65 -8 3 -22 -1 -31 -9z"/>
<path d="M5273 5734 c-16 -43 55 -160 94 -152 44 8 16 101 -44 148 -31 24 -42
25 -50 4z"/>
<path d="M5837 5719 c-69 -57 -84 -120 -24 -105 49 12 98 83 83 121 -8 21 -17
19 -59 -16z"/>
<path d="M6066 5628 c-42 -40 -55 -75 -30 -85 12 -4 30 7 61 41 25 25 43 52
40 59 -8 24 -36 18 -71 -15z"/>
<path d="M5077 5593 c-20 -19 -4 -44 43 -68 59 -30 113 -34 108 -8 -8 43 -126
102 -151 76z"/>
<path d="M6184 5476 c-34 -15 -67 -54 -58 -68 15 -23 124 24 124 53 0 13 -21
31 -33 29 -1 -1 -16 -7 -33 -14z"/>
<path d="M5005 5363 c-27 -7 -46 -23 -39 -34 9 -15 148 -11 170 5 18 14 18 15
-9 25 -29 11 -85 13 -122 4z"/>
<path d="M6213 5303 c-18 -7 -16 -30 3 -37 9 -3 31 -6 50 -6 37 0 58 25 33 41
-15 9 -66 11 -86 2z"/>
<path d="M4940 5176 c-7 -9 -10 -23 -6 -31 11 -30 151 -7 151 25 0 22 -127 27
-145 6z"/>
<path d="M6253 5160 c-28 -11 -29 -22 -4 -44 31 -28 83 -31 105 -7 18 19 18
23 5 37 -19 19 -77 27 -106 14z"/>
<path d="M1060 2313 c-51 -19 -115 -130 -151 -260 -25 -92 -23 -217 5 -271 36
-70 135 -93 199 -46 68 50 106 189 87 323 -14 104 -48 200 -81 233 -28 29 -33
30 -59 21z m19 -287 c20 -80 11 -146 -23 -168 -24 -16 -29 -6 -22 50 15 138
19 162 26 162 4 0 13 -20 19 -44z"/>
<path d="M855 1399 c-57 -13 -109 -59 -141 -126 -23 -46 -29 -74 -32 -148 -5
-111 8 -180 53 -273 43 -90 91 -143 174 -192 107 -62 105 -58 109 -231 l3
-149 -71 0 c-39 0 -86 -6 -105 -14 -29 -13 -35 -20 -35 -46 0 -83 62 -125 206
-140 152 -16 304 11 359 63 47 44 53 77 22 112 -20 24 -33 29 -92 34 -81 7
-82 9 -84 137 -1 45 -6 105 -11 134 -12 62 -7 71 60 105 66 34 135 113 180
208 56 117 72 190 68 306 -5 155 -40 198 -178 220 -78 13 -429 13 -485 0z
m464 -116 c32 -26 47 -139 32 -240 -14 -91 -53 -185 -92 -218 -30 -25 -96 -51
-106 -41 -3 3 7 22 23 41 112 140 152 228 139 311 -11 78 -69 127 -163 140
-80 10 -51 24 52 24 74 0 98 -4 115 -17z"/>
<path d="M2468 1191 c-182 -58 -292 -209 -317 -433 -22 -199 35 -375 166 -505
44 -44 46 -45 97 -41 41 3 103 29 289 119 l236 114 -107 7 c-133 8 -207 34
-273 95 -118 110 -114 268 9 347 60 39 78 41 108 11 25 -25 26 -31 21 -98 -3
-40 -13 -95 -22 -124 -10 -28 -15 -59 -12 -67 17 -43 165 11 231 84 60 66 80
116 81 195 0 81 -23 135 -83 198 -101 105 -276 145 -424 98z m117 -51 c15 -25
-44 -63 -154 -99 -65 -21 -121 -27 -121 -13 0 10 74 55 150 91 66 32 114 39
125 21z"/>
<path d="M5127 1063 c-4 -3 -7 -44 -7 -90 l0 -83 -292 0 c-318 0 -406 -8 -483
-44 -97 -44 -195 -176 -211 -283 -6 -38 -3 -45 24 -72 l29 -30 -23 -48 c-23
-47 -54 -219 -54 -297 l0 -36 1450 0 1450 0 0 183 c-1 344 -41 478 -169 554
-88 53 -163 65 -466 73 -347 10 -391 21 -387 96 1 22 3 48 5 59 2 20 -5 20
-429 23 -237 1 -434 -1 -437 -5z m-277 -298 c0 -8 -9 -15 -20 -15 -20 0 -26
11 -13 23 12 13 33 7 33 -8z m990 5 c437 -14 823 -48 904 -80 53 -20 16 -30
-74 -20 -87 9 -411 22 -1015 40 -333 10 -626 26 -654 36 -83 28 330 40 839 24z
m124 -295 c8 -30 -9 -75 -28 -75 -20 0 -28 15 -28 56 0 65 41 79 56 19z"/>
</g>
</svg>
