<svg width="12" height="17" viewBox="0 0 12 17" fill="none" xmlns="http://www.w3.org/2000/svg">
<path fill-rule="evenodd" clip-rule="evenodd" d="M11.8333 6.5C11.8333 7.73796 11.4477 8.88584 10.79 9.83008H10.7917L6.70256 16.2332C6.37484 16.7464 5.62532 16.7462 5.29775 16.233L1.22812 9.856C0.559386 8.90688 0.166656 7.74931 0.166656 6.5C0.166656 3.27834 2.77833 0.666672 5.99999 0.666672C9.22165 0.666672 11.8333 3.27834 11.8333 6.5ZM5.99999 9.83334C7.84094 9.83334 9.33332 8.34095 9.33332 6.5C9.33332 4.65906 7.84094 3.16667 5.99999 3.16667C4.15904 3.16667 2.66666 4.65906 2.66666 6.5C2.66666 8.34095 4.15904 9.83334 5.99999 9.83334Z" fill="#22202B"/>
</svg>
