<svg width="38" height="38" viewBox="0 0 38 38" fill="none" xmlns="http://www.w3.org/2000/svg">
<path fill-rule="evenodd" clip-rule="evenodd" d="M13.0676 4.92385C13.4506 4.70497 13.9177 4.692 14.3123 4.8893L24.2363 9.85128L32.8593 4.92385C33.2676 4.69049 33.7694 4.69217 34.1762 4.92824C34.583 5.16432 34.8333 5.5991 34.8333 6.06944V27.1805C34.8333 27.654 34.5796 28.0912 34.1685 28.3261L24.9324 33.6039C24.5494 33.8228 24.0823 33.8358 23.6877 33.6385L13.7637 28.6765L5.14074 33.6039C4.73237 33.8373 4.23066 33.8356 3.82385 33.5995C3.41705 33.3634 3.16667 32.9287 3.16667 32.4583V11.3472C3.16667 10.8737 3.42038 10.4365 3.83149 10.2016L13.0676 4.92385ZM13.7637 7.56539L5.80556 12.1129V30.1847L13.0676 26.035C13.4506 25.8161 13.9177 25.8031 14.3123 26.0004L24.2363 30.9624L32.1944 26.4148V8.34308L24.9324 12.4928C24.5494 12.7117 24.0823 12.7247 23.6877 12.5274L13.7637 7.56539Z" fill="#22202B"/>
<path fill-rule="evenodd" clip-rule="evenodd" d="M13.7222 4.75C14.4509 4.75 15.0416 5.34074 15.0416 6.06944V27.1806C15.0416 27.9093 14.4509 28.5 13.7222 28.5C12.9934 28.5 12.4027 27.9093 12.4027 27.1806V6.06944C12.4027 5.34074 12.9934 4.75 13.7222 4.75Z" fill="#22202B"/>
<path fill-rule="evenodd" clip-rule="evenodd" d="M24.2778 10.0278C25.0065 10.0278 25.5972 10.6186 25.5972 11.3473V32.4584C25.5972 33.1871 25.0065 33.7778 24.2778 33.7778C23.5491 33.7778 22.9583 33.1871 22.9583 32.4584V11.3473C22.9583 10.6186 23.5491 10.0278 24.2778 10.0278Z" fill="#22202B"/>
</svg>
